<svg width="42" height="34" viewBox="0 0 42 34" fill="none" xmlns="http://www.w3.org/2000/svg">
<path d="M18.9006 11.6346C19.1877 11.6346 19.439 11.3834 19.439 11.0962V8.44044C19.439 8.15332 19.1877 7.9021 18.9006 7.9021C18.6135 7.9021 18.3623 8.15332 18.3623 8.44044V11.0962C18.3623 11.3834 18.6135 11.6346 18.9006 11.6346Z" fill="white"/>
<path d="M23.0637 11.6346C23.3509 11.6346 23.6021 11.3834 23.6021 11.0962V8.44044C23.6021 8.15332 23.3509 7.9021 23.0637 7.9021C22.7766 7.9021 22.5254 8.15332 22.5254 8.44044V11.0962C22.5254 11.3834 22.7407 11.6346 23.0637 11.6346Z" fill="white"/>
<path d="M21.018 11.6346C21.3051 11.6346 21.5563 11.3834 21.5563 11.0963V6.53834C21.5563 6.25123 21.3051 6 21.018 6C20.7309 6 20.4797 6.25123 20.4797 6.53834V11.0963C20.4797 11.3834 20.7309 11.6346 21.018 11.6346Z" fill="white"/>
<path d="M26.7244 21.863C27.514 20.8581 28.0523 19.6737 28.2318 18.3817H29.9186C31.3182 18.3817 32.4667 17.2332 32.4667 15.8336C32.4667 14.4339 31.3182 13.2854 29.9186 13.2854H28.3035V12.6035C28.3035 12.3164 28.0523 12.0652 27.7652 12.0652H14.3067C14.0196 12.0652 13.7684 12.3164 13.7684 12.6035V17.305C13.7684 19.0277 14.3785 20.6068 15.3475 21.8271C13.0147 22.2219 10 23.0473 10 24.6982C10 26.8516 15.527 28 21.018 28C26.5091 28 32.036 26.8516 32.036 24.6982C32.036 23.0473 29.0572 22.2577 26.7244 21.863ZM29.9186 14.3621C30.7081 14.3621 31.39 15.0081 31.39 15.8336C31.39 16.659 30.744 17.305 29.9186 17.305H28.3035V14.398H29.9186V14.3621ZM14.8451 13.1419H27.2269V17.305C27.2269 20.7145 24.4634 23.5139 21.018 23.5139C17.5726 23.5139 14.8092 20.7504 14.8092 17.305V13.1419H14.8451ZM21.018 26.9592C14.5938 26.9592 11.0767 25.4878 11.0767 24.7341C11.0767 24.3393 12.3687 23.3344 16.2447 22.7961C17.5368 23.9087 19.1877 24.5906 21.018 24.5906C22.8484 24.5906 24.4993 23.9087 25.7913 22.7961C29.7032 23.3344 30.9594 24.3034 30.9594 24.7341C30.9594 25.4878 27.4781 26.9592 21.018 26.9592Z" fill="white"/>
</svg>
