<svg width="24" height="17" viewBox="0 0 24 17" fill="none" xmlns="http://www.w3.org/2000/svg">
<path d="M9.05028 14.3947L3.60548 9.00177L22.5226 9.00176C23.0479 9.00176 23.473 8.5807 23.473 8.06048C23.473 7.54027 23.0479 7.1192 22.5226 7.1192L3.60421 7.11921L9.05155 1.71877C9.42286 1.35104 9.42222 0.754269 9.05028 0.387797C8.67897 0.0206977 8.07765 0.0206974 7.70635 0.388424L0.641343 7.39406C0.552001 7.48191 0.481671 7.58671 0.433515 7.70343C0.43098 7.70845 0.43098 7.71347 0.428445 7.71849C0.386624 7.82454 0.361909 7.94 0.361909 8.06111C0.361909 8.18285 0.386624 8.29832 0.428445 8.405C0.43098 8.40939 0.43098 8.41441 0.433515 8.4188C0.481671 8.53552 0.552634 8.64032 0.641343 8.72817L7.70635 15.7256C8.07702 16.0934 8.67897 16.0934 9.05028 15.7256C9.42159 15.3579 9.42159 14.7624 9.05028 14.3947Z" fill="black"/>
</svg>
