<svg width="42" height="34" viewBox="0 0 42 34" fill="none" xmlns="http://www.w3.org/2000/svg">
<path d="M30.8621 12.8276H25.931V7.89655C25.931 7.88824 25.9268 7.88089 25.9263 7.87269C25.9242 7.83949 25.9177 7.80672 25.9069 7.77525C25.9033 7.76306 25.899 7.75107 25.8941 7.73933C25.8762 7.6982 25.8511 7.66062 25.8199 7.62838L24.3027 6.11114C24.2701 6.07961 24.2321 6.05423 24.1906 6.03622C24.1799 6.03137 24.1692 6.02864 24.1582 6.02462C24.125 6.01295 24.0904 6.00606 24.0552 6.00413C24.0481 6.00379 24.0417 6 24.0345 6H16.4483C16.3477 6 16.2512 6.03996 16.1801 6.1111C16.1089 6.18223 16.069 6.27871 16.069 6.37931V12.8276H11.1379C10.8362 12.8279 10.547 12.9479 10.3337 13.1612C10.1203 13.3746 10.0003 13.6638 10 13.9655V20.0345C10.0003 20.3362 10.1203 20.6254 10.3337 20.8388C10.547 21.0521 10.8362 21.1721 11.1379 21.1724H14.931C15.0316 21.1724 15.1281 21.1325 15.1992 21.0613C15.2704 20.9902 15.3103 20.8937 15.3103 20.7931C15.3103 20.6925 15.2704 20.596 15.1992 20.5249C15.1281 20.4538 15.0316 20.4138 14.931 20.4138V18.1379H16.0386L15.3114 27.5914C15.3074 27.6436 15.3142 27.696 15.3313 27.7454C15.3485 27.7948 15.3757 27.8401 15.4112 27.8784C15.4467 27.9168 15.4898 27.9474 15.5377 27.9683C15.5856 27.9892 15.6374 28 15.6897 28H26.3103C26.3626 28 26.4144 27.9892 26.4623 27.9683C26.5102 27.9474 26.5533 27.9168 26.5888 27.8784C26.6243 27.8401 26.6515 27.7948 26.6687 27.7454C26.6858 27.696 26.6926 27.6436 26.6886 27.5914L25.9614 18.1379H27.069V20.4138C26.9684 20.4138 26.8719 20.4538 26.8008 20.5249C26.7296 20.596 26.6897 20.6925 26.6897 20.7931C26.6897 20.8937 26.7296 20.9902 26.8008 21.0613C26.8719 21.1325 26.9684 21.1724 27.069 21.1724H30.8621C31.1638 21.1721 31.453 21.0521 31.6663 20.8388C31.8797 20.6254 31.9997 20.3362 32 20.0345V13.9655C31.9997 13.6638 31.8797 13.3746 31.6663 13.1612C31.453 12.9479 31.1638 12.8279 30.8621 12.8276V12.8276ZM16.8276 6.75862H23.6552V7.89655C23.6552 7.99715 23.6951 8.09363 23.7663 8.16476C23.8374 8.2359 23.9339 8.27586 24.0345 8.27586H25.1724V12.8276H16.8276V6.75862ZM25.9007 27.2414H16.0993L16.7996 18.1379H25.2004L25.9007 27.2414ZM31.2414 20.0345C31.2413 20.1351 31.2013 20.2315 31.1302 20.3026C31.0591 20.3737 30.9626 20.4137 30.8621 20.4138H27.8276V17.7586C27.8276 17.658 27.7876 17.5615 27.7165 17.4904C27.6454 17.4193 27.5489 17.3793 27.4483 17.3793H14.5517C14.4511 17.3793 14.3546 17.4193 14.2835 17.4904C14.2124 17.5615 14.1724 17.658 14.1724 17.7586V20.4138H11.1379C11.0374 20.4137 10.9409 20.3737 10.8698 20.3026C10.7987 20.2315 10.7587 20.1351 10.7586 20.0345V13.9655C10.7587 13.8649 10.7987 13.7685 10.8698 13.6974C10.9409 13.6263 11.0374 13.5863 11.1379 13.5862H30.8621C30.9626 13.5863 31.0591 13.6263 31.1302 13.6974C31.2013 13.7685 31.2413 13.8649 31.2414 13.9655V20.0345ZM18.7241 20.0345C18.7241 19.9339 18.7641 19.8374 18.8352 19.7663C18.9064 19.6951 19.0028 19.6552 19.1034 19.6552H22.8966C22.9972 19.6552 23.0936 19.6951 23.1648 19.7663C23.2359 19.8374 23.2759 19.9339 23.2759 20.0345C23.2759 20.1351 23.2359 20.2316 23.1648 20.3027C23.0936 20.3738 22.9972 20.4138 22.8966 20.4138H19.1034C19.0028 20.4138 18.9064 20.3738 18.8352 20.3027C18.7641 20.2316 18.7241 20.1351 18.7241 20.0345ZM18.7241 22.6897C18.7241 22.5891 18.7641 22.4926 18.8352 22.4214C18.9064 22.3503 19.0028 22.3103 19.1034 22.3103H22.8966C22.9972 22.3103 23.0936 22.3503 23.1648 22.4214C23.2359 22.4926 23.2759 22.5891 23.2759 22.6897C23.2759 22.7903 23.2359 22.8867 23.1648 22.9579C23.0936 23.029 22.9972 23.069 22.8966 23.069H19.1034C19.0028 23.069 18.9064 23.029 18.8352 22.9579C18.7641 22.8867 18.7241 22.7903 18.7241 22.6897ZM18.7241 25.3448C18.7241 25.2442 18.7641 25.1477 18.8352 25.0766C18.9064 25.0055 19.0028 24.9655 19.1034 24.9655H22.8966C22.9972 24.9655 23.0936 25.0055 23.1648 25.0766C23.2359 25.1477 23.2759 25.2442 23.2759 25.3448C23.2759 25.4454 23.2359 25.5419 23.1648 25.613C23.0936 25.6842 22.9972 25.7241 22.8966 25.7241H19.1034C19.0028 25.7241 18.9064 25.6842 18.8352 25.613C18.7641 25.5419 18.7241 25.4454 18.7241 25.3448Z" fill="white"/>
</svg>
