<svg width="42" height="34" viewBox="0 0 42 34" fill="none" xmlns="http://www.w3.org/2000/svg">
<path d="M16.4286 17.5449C16.008 17.5449 15.6667 17.1986 15.6667 16.7753V12.1573C15.6667 11.7324 16.008 11.3876 16.4286 11.3876C16.8491 11.3876 17.1905 11.7324 17.1905 12.1573V16.7753C17.1905 17.1986 16.8491 17.5449 16.4286 17.5449ZM26.3333 16.7753V12.1573C26.3333 11.7324 25.9905 11.3876 25.5714 11.3876C25.1524 11.3876 24.8095 11.7324 24.8095 12.1573V16.7753C24.8095 17.1986 25.1524 17.5449 25.5714 17.5449C25.9905 17.5449 26.3333 17.1986 26.3333 16.7753ZM37 6.76966V22.1629C37 22.5862 36.6571 22.9326 36.2381 22.9326H32.4255L36.1406 26.6854C36.4377 26.9856 36.4377 27.4751 36.1406 27.7737C35.9912 27.9261 35.7962 27.9985 35.6011 27.9985C35.4061 27.9985 35.211 27.923 35.0617 27.7737L30.2709 22.9326H11.5387L6.74476 27.7753C6.59543 27.9261 6.40038 28 6.20533 28C6.01029 28 5.81524 27.9246 5.6659 27.7753C5.36876 27.4751 5.36876 26.9856 5.6659 26.687L9.384 22.9326H5.7619C5.34133 22.9326 5 22.5862 5 22.1629V6.76966C5 6.34481 5.34133 6 5.7619 6H36.2381C36.6571 6 37 6.34481 37 6.76966ZM20.2381 7.53932H6.52381V21.3932H20.2381V7.53932ZM35.4762 7.53932H21.7619V21.3932H35.4762V7.53932Z" fill="white"/>
</svg>
