<svg width="1353" height="264" viewBox="0 0 1353 264" fill="none" xmlns="http://www.w3.org/2000/svg">
<path d="M28.9819 101.759H53.2494L38.4746 191.304H67.6006L82.3753 101.759H106.418L111.352 72.6956H33.9151L28.9819 101.759Z" fill="white"/>
<path d="M171.393 72.6956L164.217 114.778H142.026L149.227 72.6956H119.323L99.1487 191.304H129.053L137.046 143.842H159.238L151.244 191.304H181.174L201.348 72.6956H171.393Z" fill="white"/>
<path d="M273.562 101.759L285.243 72.6956H210.306L190.671 191.304H259.593L271.25 162.241H223.703L226.561 145.051H256.163L267.845 116.02H231.457L233.819 101.759H273.562Z" fill="white"/>
<path d="M456.104 3.82617H379.081L273.041 260.174H337.073L356.622 208.224H412.59L416.189 260.047H477.44L456.104 3.82617ZM377.243 149.984C389.392 118.465 399.345 92.0291 407.103 69.2476C407.92 91.489 409.477 120.498 411.493 149.984H377.243Z" fill="white"/>
<path d="M655.907 3.82617H484.55L474.389 62.0668H529.597L495.965 260.174H557.342L590.973 62.0668H645.746L655.907 3.82617Z" fill="white"/>
<path d="M816.296 32.0211C801.077 11.0842 778.02 0 749.788 0C674.148 0 634.552 80.1158 634.552 159.253C634.552 224.842 666.665 264 720.465 264C758.514 264 789.561 246.853 810.259 214.453C827.787 187.011 837.426 149.337 837.426 108.347C837.426 77.3684 830.095 50.9684 816.296 32.0211ZM726.578 207.189C702.202 207.189 697.104 181.926 697.104 160.516C697.241 136.961 701.527 113.731 709.66 92.4632C716.229 76.2 728.075 56.8105 747.074 56.8105C766.073 56.8105 775.889 72.6 775.889 104.179C775.889 143.937 762.496 207.189 726.578 207.189Z" fill="white"/>
<path d="M1090.64 3.98495H1003.37L1002.72 5.95367C998.387 18.4646 993.932 31.1661 989.527 43.7724C975.831 83.02 962.794 120.394 953.427 150.401C954.718 110.582 955.579 47.9956 955.326 7.22384V4.04847H870.063L826.749 260.174H881.86L895.708 178.091C900.771 148.623 905.707 116.044 909.454 89.1802C908.897 120.712 908.745 156.562 908.619 191.554C908.619 214.004 908.442 236.2 908.239 256.84V260.015H957.528L958.212 258.046C980.996 193.142 1001.8 129.698 1015.91 86.1001C1010.84 113.091 1005.05 146.273 1000.31 174.598L985.957 260.015H1047.37L1065.09 154.879H1021.25L1090.64 3.82617V3.98495Z" fill="white"/>
<path d="M1102.19 3.82617L1084.3 109.028H1130.46L1058.6 260.174H1123.32L1166.91 3.82617H1102.19Z" fill="white"/>
<path d="M1267.38 56.6211C1283.95 56.6211 1291.41 66.9474 1291.49 90.1579V93.3158H1353V90.1579C1353 64.3579 1346.63 42.5053 1334.22 27C1320.11 9.34738 1298.52 0 1271.77 0C1234.57 0 1204.04 18.9474 1183.48 54.5684C1167.14 82.9895 1157.75 120.884 1157.75 159C1157.75 225.726 1187.75 264 1240.05 264C1291.94 264 1326.63 232.958 1340.34 174.284L1341.33 170.116H1279.51L1278.85 172.168C1273.01 190.232 1264.97 206.905 1245.86 206.905C1229.37 206.905 1221.35 192.347 1221.35 162.411C1221.3 118.042 1237.31 56.6211 1267.38 56.6211Z" fill="white"/>
<path d="M44.7 3.82617L39.6594 32.5218H326.615L338.631 3.82617H44.7Z" fill="white"/>
<path d="M4.99996 231.478L0 260.174H232.079L244.059 231.478H4.99996Z" fill="white"/>
</svg>
