<svg width="123" height="24" viewBox="0 0 123 24" fill="none" xmlns="http://www.w3.org/2000/svg">
<path d="M2.63477 9.23915H4.8409L3.49774 17.3695H6.14555L7.48871 9.23915H9.67445L10.1229 6.60034H3.08324L2.63477 9.23915Z" fill="white"/>
<path d="M15.5811 6.60034L14.9288 10.4213H12.9113L13.566 6.60034H10.8475L9.01343 17.3695H11.732L12.4586 13.0601H14.4761L13.7494 17.3695H16.4703L18.3043 6.60034H15.5811Z" fill="white"/>
<path d="M24.8693 9.23915L25.9312 6.60034H19.1188L17.3337 17.3695H23.5994L24.6591 14.7307H20.3367L20.5965 13.1699H23.2876L24.3496 10.534H21.0416L21.2563 9.23915H24.8693Z" fill="white"/>
<path d="M41.4639 0.347412H34.4618L24.8218 23.6226H30.6429L32.4201 18.9058H37.5081L37.8352 23.6111H43.4035L41.4639 0.347412ZM34.2948 13.6179C35.3991 10.7561 36.304 8.35584 37.0093 6.28738C37.0835 8.3068 37.2251 10.9407 37.4083 13.6179H34.2948Z" fill="white"/>
<path d="M59.6279 0.347412H44.05L43.1262 5.6354H48.1451L45.0877 23.6226H50.6674L53.7248 5.6354H58.7042L59.6279 0.347412Z" fill="white"/>
<path d="M74.2087 2.90737C72.8251 1.0064 70.729 0 68.1625 0C61.2861 0 57.6865 7.27415 57.6865 14.4594C57.6865 20.4146 60.6059 23.97 65.4968 23.97C68.9557 23.97 71.7782 22.4131 73.6599 19.4713C75.2533 16.9797 76.1296 13.5591 76.1296 9.83745C76.1296 7.0247 75.4632 4.6277 74.2087 2.90737ZM66.0525 18.8119C63.8365 18.8119 63.373 16.5181 63.373 14.5741C63.3855 12.4355 63.7752 10.3263 64.5145 8.39523C65.1117 6.91861 66.1886 5.15814 67.9158 5.15814C69.6429 5.15814 70.5353 6.59175 70.5353 9.45897C70.5353 13.0688 69.3178 18.8119 66.0525 18.8119Z" fill="white"/>
<path d="M99.1488 0.361828H91.2159L91.156 0.540579C90.7625 1.67652 90.3575 2.82976 89.957 3.97434C88.7119 7.53785 87.5267 10.9312 86.6752 13.6558C86.7926 10.0404 86.8708 4.3578 86.8478 0.655905V0.367596H79.0966L75.1589 23.6226H80.1691L81.428 16.1698C81.8883 13.4943 82.337 10.5363 82.6776 8.09717C82.627 10.9601 82.6132 14.2151 82.6017 17.3923C82.6017 19.4306 82.5856 21.4459 82.5672 23.3199V23.6082H87.048L87.1102 23.4295C89.1814 17.5364 91.0732 11.776 92.3551 7.81751C91.8948 10.2681 91.3678 13.281 90.9374 15.8527L89.6325 23.6082H95.2157L96.8267 14.0623H92.8407L99.1488 0.347412V0.361828Z" fill="white"/>
<path d="M100.199 0.347412L98.5725 9.89925H102.769L96.2368 23.6226H102.12L106.082 0.347412H100.199Z" fill="white"/>
<path d="M115.216 5.14094C116.723 5.14094 117.401 6.07852 117.408 8.18593V8.47265H123V8.18593C123 5.8434 122.421 3.85929 121.293 2.45148C120.01 0.848699 118.047 0 115.615 0C112.233 0 109.458 1.72033 107.589 4.95456C106.104 7.53507 105.25 10.9757 105.25 14.4365C105.25 20.4949 107.977 23.97 112.732 23.97C117.449 23.97 120.603 21.1515 121.849 15.8242L121.939 15.4457H116.319L116.259 15.6321C115.728 17.2722 114.997 18.7861 113.26 18.7861C111.76 18.7861 111.031 17.4643 111.031 14.7461C111.027 10.7177 112.483 5.14094 115.216 5.14094Z" fill="white"/>
<path d="M4.0637 0.347412L3.60547 2.95285H29.6924L30.7847 0.347412H4.0637Z" fill="white"/>
<path d="M0.454542 21.0171L0 23.6225H21.0981L22.1871 21.0171H0.454542Z" fill="white"/>
</svg>
