<svg width="42" height="34" viewBox="0 0 42 34" fill="none" xmlns="http://www.w3.org/2000/svg">
<path fill-rule="evenodd" clip-rule="evenodd" d="M21.3022 6.00001C23.752 5.99738 26.1352 6.77095 28.0868 8.20225C28.3872 8.42259 28.4459 8.83661 28.218 9.12697C27.99 9.41734 27.5616 9.47411 27.2612 9.25377C25.5473 7.99682 23.4544 7.31755 21.303 7.32001L21.3022 7.32001C15.8186 7.32001 11.3658 11.6487 11.3658 17C11.3658 22.3514 15.8186 26.68 21.3013 26.68C25.6232 26.68 29.3061 23.9902 30.6726 20.2283C30.7975 19.8844 31.1873 19.7035 31.5431 19.8242C31.899 19.945 32.0862 20.3217 31.9613 20.6656C30.4105 24.9346 26.2265 28 21.3013 28C15.0547 28 10 23.071 10 17C10 10.9289 15.0547 6.00001 21.3022 6.00001ZM21.3022 6.00001V6.66001L21.3014 6.00001C21.3017 6.00001 21.3019 6.00001 21.3022 6.00001Z" fill="white"/>
<path d="M31.5 18C31.7761 18 32 17.7761 32 17.5C32 17.2239 31.7761 17 31.5 17C31.2239 17 31 17.2239 31 17.5C31 17.7761 31.2239 18 31.5 18Z" fill="white"/>
<path d="M20.5532 14.9064C20.5532 13.834 19.7202 13 18.3051 13C16.8559 13 16 13.8539 16 15.1844H17.1183C17.1183 14.3106 17.552 13.834 18.3051 13.834C18.9556 13.834 19.4349 14.2511 19.4349 14.9064C19.4349 15.4823 19.0469 15.9489 18.6475 16.3759L16.0685 19.1064V20H20.5304V19.1064H17.4379L19.3892 17.0312C19.937 16.4454 20.5532 15.7206 20.5532 14.9064Z" fill="white"/>
<path d="M25.1327 20V18.461H26V17.617H25.1327V13.1092H23.8204L20.6252 17.6071V18.461H24.0486V20H25.1327ZM24.0486 17.617H21.7093L24.0486 14.3305V17.617Z" fill="white"/>
</svg>
