<svg width="42" height="34" viewBox="0 0 42 34" fill="none" xmlns="http://www.w3.org/2000/svg">
<path d="M15.7487 15H15.2462C15.1055 15 14.995 15.1051 14.995 15.2388V20.1487C14.995 21.1946 14.1005 22.0448 13 22.0448C11.8995 22.0448 11.005 21.1946 11.005 20.1487C11.005 20.0149 10.8945 19.9099 10.7538 19.9099H10.2513C10.1106 19.9099 10 20.0149 10 20.1487C10 21.72 11.3467 23 13 23C14.6533 23 16 21.72 16 20.1487V15.2388C16 15.1099 15.8844 15 15.7487 15Z" fill="white"/>
<path d="M16 25.3493C16 26.8101 17.1223 28 18.5 28C19.8777 28 21 26.8101 21 25.3493V19.222C21 19.0977 20.9079 19 20.7906 19H20.3719C20.2546 19 20.1625 19.0977 20.1625 19.222V25.3493C20.1625 26.3217 19.4171 27.112 18.5 27.112C17.5829 27.112 16.8375 26.3217 16.8375 25.3493C16.8375 25.225 16.7454 25.1273 16.6281 25.1273H16.2094C16.0963 25.1273 16 25.2294 16 25.3493Z" fill="white"/>
<path d="M24.7538 15H24.2513C24.1106 15 24 15.1031 24 15.2343V21.203C24 22.7444 25.3467 24 27 24C28.6533 24 30 22.7444 30 21.203C30 21.0718 29.8894 20.9688 29.7487 20.9688H29.2462C29.1055 20.9688 28.995 21.0718 28.995 21.203C28.995 22.229 28.1005 23.063 27 23.063C25.8995 23.063 25.005 22.229 25.005 21.203V15.2343C25.005 15.1078 24.8894 15 24.7538 15Z" fill="white"/>
<path d="M32.7666 6H9.23337C9.10268 6 9 6.10538 9 6.23949V14.7605C9 14.8946 9.10268 15 9.23337 15H32.7666C32.8973 15 33 14.8946 33 14.7605V6.23949C33 6.10538 32.8926 6 32.7666 6ZM29.2754 14.042H12.7246V13.4625H29.2754V14.042V14.042ZM32.0665 14.042H30.2089V12.744C30.2089 12.6099 30.1062 12.5045 29.9755 12.5045H12.0245C11.8938 12.5045 11.7911 12.6099 11.7911 12.744V14.042H9.93349V9.21394H32.0665V14.042ZM32.0665 8.25599H9.93349V6.95796H32.0665V8.25599Z" fill="white"/>
</svg>
