<svg width="24" height="17" viewBox="0 0 24 17" fill="none" xmlns="http://www.w3.org/2000/svg">
<path d="M14.8671 1.90587L20.3119 7.29877L1.39478 7.29877C0.869503 7.29877 0.444336 7.71984 0.444336 8.24005C0.444336 8.76027 0.869503 9.18133 1.39478 9.18133L20.3131 9.18133L14.8658 14.5818C14.4945 14.9495 14.4951 15.5463 14.8671 15.9127C15.2384 16.2798 15.8397 16.2798 16.211 15.9121L23.276 8.90648C23.3654 8.81863 23.4357 8.71383 23.4838 8.59711C23.4864 8.59209 23.4864 8.58707 23.4889 8.58205C23.5307 8.476 23.5555 8.36054 23.5555 8.23942C23.5555 8.11769 23.5307 8.00222 23.4889 7.89554C23.4864 7.89115 23.4864 7.88613 23.4838 7.88174C23.4357 7.76502 23.3647 7.66022 23.276 7.57237L16.211 0.574893C15.8403 0.207166 15.2384 0.207166 14.8671 0.574893C14.4958 0.942621 14.4958 1.53814 14.8671 1.90587Z" fill="black"/>
</svg>
