<svg width="679" height="212" viewBox="0 0 679 212" fill="none" xmlns="http://www.w3.org/2000/svg">
<g clip-path="url(#clip0)">
<path d="M11.9625 117.494C14.0271 96.7866 32.4178 81.6807 53.0392 83.7539L229.063 101.451C249.684 103.524 264.727 121.992 262.663 142.699C260.598 163.406 242.207 178.512 221.586 176.439L45.5625 158.742C24.9411 156.668 9.89787 138.201 11.9625 117.494Z" fill="#B6E8F3"/>
<path fill-rule="evenodd" clip-rule="evenodd" d="M228.75 102.05L52.7261 84.3527C32.5957 82.3288 14.6429 97.0751 12.6274 117.289C10.6119 137.504 25.297 155.531 45.4274 157.555L221.451 175.252C241.581 177.276 259.534 162.53 261.55 142.316C263.565 122.101 248.88 104.074 228.75 102.05ZM52.8151 83.46C32.1937 81.3867 13.803 96.4926 11.7384 117.2C9.67375 137.907 24.717 156.375 45.3383 158.448L221.362 176.145C241.983 178.218 260.374 163.112 262.439 142.405C264.503 121.698 249.46 103.23 228.839 101.157L52.8151 83.46Z" fill="black"/>
<path d="M71.1903 116.898L72.9515 131.384L77.0587 131.797L83.1791 113.64L79.7653 113.297L75.3257 127.024L73.7378 112.691L69.5772 112.272L65.2176 126.008L63.5498 111.666L60.1093 111.32L62.5234 130.336L66.6306 130.749L71.1903 116.898Z" fill="#2F6D4A"/>
<path d="M86.7175 123.382C87.118 119.365 89.2839 117.094 91.8976 117.357C94.5379 117.622 96.1859 120.276 95.7853 124.293C95.3848 128.311 93.2455 130.584 90.6052 130.319C87.9915 130.056 86.3169 127.399 86.7175 123.382ZM99.4925 124.666C100.069 118.881 97.144 114.719 92.21 114.223C87.276 113.727 83.5871 117.224 83.0103 123.009C82.4335 128.794 85.3588 132.956 90.2928 133.452C95.2268 133.948 98.9157 130.451 99.4925 124.666Z" fill="#2F6D4A"/>
<path d="M100.949 134.199L104.47 134.553L105.177 127.456L108.538 127.794L111.377 135.247L115.218 135.633L112.101 127.449C114.067 126.916 115.56 125.173 115.819 122.575C116.183 118.933 114.164 116.755 110.163 116.353L102.802 115.613L100.949 134.199ZM112.118 122.419C111.931 124.294 110.754 125.014 108.941 124.832L105.474 124.483L106.029 118.913L109.496 119.261C111.31 119.443 112.307 120.518 112.118 122.419Z" fill="#2F6D4A"/>
<path d="M117.371 135.85L120.892 136.204L121.436 130.741L124.021 128.322L128.013 136.92L132.093 137.33L126.747 125.837L133.946 118.744L129.759 118.323L121.901 126.081L122.745 117.618L119.224 117.264L117.371 135.85Z" fill="#2F6D4A"/>
<path d="M134.338 124.031C134.055 126.87 135.818 128.643 138.333 129.626L141.416 130.856C142.709 131.392 143.549 132.152 143.429 133.357C143.285 134.804 141.858 135.607 139.938 135.414C137.777 135.197 136.668 133.895 136.687 131.814L133.113 131.455C132.966 135.362 135.211 137.968 139.639 138.413C143.852 138.837 146.658 136.631 146.982 133.39C147.262 130.578 145.502 128.778 142.987 127.795L139.904 126.565C138.611 126.029 137.77 125.269 137.891 124.063C138.019 122.778 139.336 121.991 141.07 122.165C142.884 122.347 144.02 123.381 143.926 125.401L147.473 125.757C147.698 122.155 145.37 119.568 141.369 119.166C137.262 118.753 134.643 120.978 134.338 124.031Z" fill="#2F6D4A"/>
<path d="M148.939 139.024L152.459 139.378L153.247 131.477L160.741 132.231L159.954 140.131L163.474 140.485L165.327 121.899L161.807 121.545L161.065 128.99L153.57 128.237L154.313 120.791L150.792 120.438L148.939 139.024Z" fill="#2F6D4A"/>
<path d="M170.52 131.807C170.921 127.79 173.087 125.519 175.7 125.782C178.341 126.047 179.989 128.702 179.588 132.719C179.188 136.736 177.048 139.01 174.408 138.744C171.794 138.481 170.12 135.824 170.52 131.807ZM183.295 133.092C183.872 127.307 180.947 123.145 176.013 122.649C171.079 122.153 167.39 125.65 166.813 131.435C166.236 137.219 169.162 141.382 174.096 141.878C179.03 142.374 182.719 138.876 183.295 133.092Z" fill="#2F6D4A"/>
<path d="M199.171 131.469C199.604 127.13 197.007 125.084 193.059 124.687L186.605 124.038L184.752 142.624L188.272 142.978L188.913 136.551L191.847 136.846C195.794 137.243 198.742 135.781 199.171 131.469ZM195.518 131.101C195.309 133.19 193.986 134.031 191.959 133.827L189.212 133.551L189.827 127.392L192.574 127.668C194.601 127.872 195.729 128.986 195.518 131.101Z" fill="#2F6D4A"/>
<path d="M200.912 130.724C200.629 133.563 202.391 135.336 204.906 136.319L207.989 137.549C209.283 138.085 210.123 138.845 210.002 140.051C209.858 141.497 208.431 142.3 206.511 142.107C204.351 141.89 203.241 140.588 203.26 138.507L199.687 138.148C199.539 142.055 201.785 144.661 206.212 145.107C210.426 145.53 213.232 143.324 213.555 140.083C213.835 137.271 212.075 135.471 209.56 134.488L206.477 133.258C205.184 132.723 204.344 131.962 204.464 130.757C204.592 129.471 205.91 128.684 207.643 128.858C209.457 129.041 210.593 130.074 210.5 132.094L214.047 132.45C214.271 128.848 211.943 126.261 207.943 125.859C203.835 125.446 201.216 127.671 200.912 130.724Z" fill="#2F6D4A"/>
<path d="M288.776 163.249C284.175 142.482 297.21 121.902 317.89 117.282L448.639 88.0715C469.32 83.4513 489.814 96.5404 494.415 117.307V117.307C499.016 138.074 485.982 158.654 465.301 163.274L334.552 192.484C313.872 197.105 293.377 184.015 288.776 163.249V163.249Z" fill="black"/>
<path fill-rule="evenodd" clip-rule="evenodd" d="M448.838 88.9667L318.089 118.177C297.901 122.688 285.176 142.778 289.668 163.05C294.159 183.322 314.166 196.099 334.354 191.589L465.103 162.378C485.291 157.868 498.015 137.778 493.524 117.506C489.032 97.2341 469.026 84.4565 448.838 88.9667ZM317.89 117.282C297.21 121.902 284.175 142.482 288.776 163.249C293.377 184.015 313.872 197.105 334.552 192.484L465.301 163.274C485.982 158.654 499.016 138.074 494.415 117.307C489.814 96.5404 469.32 83.4512 448.639 88.0715L317.89 117.282Z" fill="black"/>
<path d="M353.931 152.827L346.397 139.599L341.422 140.71L345.552 159.35L348.868 158.609L345.744 144.508L353.174 157.647L356.571 156.888L357.78 141.819L360.904 155.92L364.221 155.179L360.091 136.539L355.143 137.645L353.931 152.827Z" fill="white"/>
<path d="M367.506 154.445L379.836 151.69L379.116 148.44L370.316 150.406L369.275 145.706L377.085 143.961L376.395 140.846L368.585 142.591L367.627 138.266L376.266 136.336L375.546 133.087L363.376 135.805L367.506 154.445Z" fill="white"/>
<path d="M382.643 151.063L394.973 148.308L394.253 145.059L385.453 147.025L384.412 142.324L392.222 140.58L391.532 137.464L383.722 139.209L382.763 134.885L391.403 132.955L390.683 129.705L378.513 132.424L382.643 151.063Z" fill="white"/>
<path d="M406.301 126.216L392.286 129.347L393.018 132.65L398.26 131.479L401.658 146.815L405.188 146.026L401.79 130.69L407.033 129.519L406.301 126.216Z" fill="white"/>
<path d="M419.232 143.227C423.404 142.295 425.707 139.385 424.63 134.523L422.011 122.706L418.481 123.494L421.099 135.312C421.67 137.89 420.648 139.613 418.535 140.085C416.422 140.557 414.77 139.432 414.198 136.854L411.58 125.036L408.05 125.825L410.668 137.642C411.745 142.504 415.032 144.165 419.232 143.227Z" fill="white"/>
<path d="M439.668 125.188C438.704 120.837 435.53 119.686 431.572 120.57L425.099 122.016L429.229 140.655L432.759 139.867L431.331 133.421L434.273 132.763C438.232 131.879 440.626 129.512 439.668 125.188ZM436.004 126.006C436.468 128.101 435.452 129.343 433.419 129.797L430.665 130.413L429.296 124.235L432.051 123.62C434.084 123.166 435.534 123.885 436.004 126.006Z" fill="white"/>
<path d="M220.2 168.398C210.068 151.211 215.731 129.03 232.847 118.857L371.73 36.3078C388.846 26.1343 410.935 31.8203 421.066 49.0079C431.197 66.1955 425.535 88.376 408.418 98.5496L269.536 181.098C252.42 191.272 230.331 185.586 220.2 168.398Z" fill="#842AF5"/>
<path fill-rule="evenodd" clip-rule="evenodd" d="M372.167 37.0488L233.284 119.598C216.575 129.529 211.048 151.181 220.938 167.96C230.828 184.738 252.39 190.289 269.099 180.357L407.982 97.8086C424.69 87.8773 430.218 66.2249 420.328 49.4465C410.438 32.6681 388.875 27.1175 372.167 37.0488ZM232.847 118.857C215.731 129.03 210.068 151.211 220.2 168.398C230.331 185.586 252.42 191.272 269.536 181.098L408.418 98.5496C425.535 88.3761 431.197 66.1955 421.066 49.0079C410.935 31.8203 388.846 26.1343 371.73 36.3078L232.847 118.857Z" fill="black"/>
<path d="M257.971 139.944C259.36 142.3 261.727 142.664 264.228 141.988L267.308 141.178C268.612 140.854 269.692 140.962 270.281 141.963C270.989 143.163 270.341 144.599 268.747 145.546C266.954 146.612 265.359 146.239 264.195 144.62L261.229 146.383C263.328 149.488 266.54 150.22 270.214 148.036C273.712 145.957 274.632 142.649 273.046 139.959C271.67 137.625 269.29 137.239 266.789 137.915L263.71 138.725C262.406 139.049 261.326 138.941 260.736 137.94C260.107 136.873 260.68 135.512 262.119 134.657C263.624 133.762 265.088 133.913 266.159 135.527L269.104 133.777C267.237 130.865 263.972 130.194 260.651 132.167C257.242 134.194 256.478 137.41 257.971 139.944Z" fill="white"/>
<path d="M278.868 121.7L267.268 128.595L268.88 131.329L273.219 128.75L280.701 141.443L283.623 139.706L276.141 127.013L280.48 124.434L278.868 121.7Z" fill="white"/>
<path d="M298.005 131.158L301.016 129.368L286.919 116.915L283.156 119.152L287.269 137.539L290.301 135.736L289.341 131.775L295.008 128.406L298.005 131.158ZM286.697 120.799L292.753 126.355L288.613 128.815L286.697 120.799Z" fill="white"/>
<path d="M305.826 105.677L302.97 107.374L309.653 118.711L297.082 110.874L293.54 112.979L302.634 128.407L305.489 126.709L298.82 115.395L311.333 123.236L314.92 121.104L305.826 105.677Z" fill="white"/>
<path d="M308.554 104.055L317.648 119.482L322.961 116.325C327.764 113.469 328.105 108.824 325.498 104.401C322.877 99.9547 318.671 98.0423 313.867 100.897L308.554 104.055ZM319.037 115.145L313.009 104.919L315.356 103.525C317.791 102.077 320.468 102.917 322.421 106.229C324.373 109.542 323.818 112.303 321.383 113.75L319.037 115.145Z" fill="white"/>
<path d="M329.166 106.182L334.789 102.84L333.348 100.395L327.725 103.737L329.166 106.182Z" fill="white"/>
<path d="M345.737 103.147C349.191 101.094 350.401 97.823 348.03 93.7996L342.264 84.0187L339.342 85.7555L345.108 95.5364C346.366 97.6704 345.953 99.5064 344.204 100.546C342.456 101.585 340.654 101.065 339.396 98.9311L333.631 89.1502L330.709 90.887L336.474 100.668C338.846 104.691 342.262 105.212 345.737 103.147Z" fill="white"/>
<path d="M358.743 81.0682C356.62 77.467 353.453 77.3683 350.177 79.3157L344.82 82.4998L353.913 97.9269L356.836 96.1901L353.691 90.8551L356.126 89.4077C359.402 87.4604 360.853 84.6471 358.743 81.0682ZM355.71 82.8708C356.732 84.6047 356.186 86.0102 354.503 87.0101L352.223 88.3654L349.209 83.2527L351.49 81.8974C353.172 80.8974 354.675 81.1147 355.71 82.8708Z" fill="white"/>
<path d="M360.59 73.1263L357.557 74.9289L359.339 77.9521L360.69 77.1495L360.834 77.394C361.463 78.461 361.444 79.3425 360.24 80.0884L361.118 81.5777C363.287 80.2883 363.722 78.4391 362.503 76.3718L360.59 73.1263Z" fill="white"/>
<path d="M365.126 76.2539C366.514 78.6102 368.881 78.9744 371.383 78.2983L374.462 77.4883C375.766 77.1639 376.846 77.2722 377.436 78.2726C378.143 79.4729 377.495 80.9088 375.901 81.8562C374.108 82.922 372.513 82.5491 371.349 80.9296L368.383 82.6927C370.482 85.7975 373.694 86.53 377.369 84.3459C380.866 82.2669 381.786 78.9587 380.2 76.269C378.825 73.9349 376.445 73.5485 373.943 74.2246L370.864 75.0346C369.56 75.3591 368.48 75.2507 367.89 74.2504C367.261 73.1834 367.834 71.8223 369.273 70.9671C370.778 70.0724 372.242 70.2229 373.314 71.8375L376.258 70.0875C374.391 67.1746 371.126 66.5038 367.806 68.4774C364.397 70.5037 363.632 73.7198 365.126 76.2539Z" fill="white"/>
<path d="M348.457 43.9674C352.019 25.2077 370.052 12.8997 388.734 16.4768L506.847 39.0919C525.529 42.6689 537.786 60.7764 534.224 79.5361V79.5361C530.661 98.2958 512.629 110.604 493.947 107.027L375.834 84.4116C357.152 80.8346 344.895 62.7271 348.457 43.9674V43.9674Z" fill="white"/>
<path fill-rule="evenodd" clip-rule="evenodd" d="M506.693 39.9007L388.58 17.2855C370.343 13.7937 352.74 25.8086 349.263 44.1216C345.785 62.4347 357.75 80.111 375.987 83.6029L494.101 106.218C512.338 109.71 529.941 97.6949 533.418 79.3819C536.896 61.0689 524.931 43.3925 506.693 39.9007ZM388.734 16.4768C370.052 12.8997 352.019 25.2077 348.457 43.9674C344.895 62.7271 357.152 80.8346 375.834 84.4116L493.947 107.027C512.629 110.604 530.661 98.2958 534.224 79.5361C537.786 60.7764 525.529 42.6689 506.847 39.0919L388.734 16.4768Z" fill="black"/>
<path d="M501.252 129.006C500.257 109.935 514.847 93.6639 533.839 92.6645L627.899 87.7148C646.892 86.7154 663.095 101.366 664.09 120.437V120.437C665.086 139.509 650.496 155.779 631.504 156.779L537.443 161.729C518.451 162.728 502.248 148.078 501.252 129.006V129.006Z" fill="#3746FF"/>
<path fill-rule="evenodd" clip-rule="evenodd" d="M627.942 88.537L533.882 93.4867C515.342 94.4623 501.1 110.346 502.071 128.963C503.043 147.58 518.86 161.882 537.4 160.906L631.461 155.957C650.001 154.981 664.243 139.098 663.271 120.48C662.3 101.863 646.482 87.5614 627.942 88.537ZM533.839 92.6645C514.847 93.6639 500.257 109.935 501.252 129.006C502.248 148.078 518.451 162.728 537.443 161.729L631.504 156.779C650.496 155.779 665.086 139.509 664.09 120.437C663.095 101.366 646.892 86.7154 627.899 87.7148L533.839 92.6645Z" fill="black"/>
<path d="M557.703 128.886L552.994 116.05L548.425 116.291L549.318 133.409L552.364 133.248L551.688 120.299L556.319 133.04L559.438 132.876L562.742 119.717L563.418 132.667L566.464 132.506L565.57 115.388L561.026 115.628L557.703 128.886Z" fill="white"/>
<path d="M575.686 132.318C579.518 132.116 581.987 129.884 581.754 125.419L581.188 114.567L577.946 114.737L578.512 125.59C578.636 127.958 577.476 129.33 575.535 129.432C573.595 129.534 572.298 128.291 572.175 125.924L571.608 115.071L568.366 115.241L568.932 126.094C569.165 130.559 571.829 132.521 575.686 132.318Z" fill="white"/>
<path d="M583.929 119.221C584.066 121.835 585.91 123.197 588.328 123.738L591.295 124.423C592.542 124.728 593.409 125.301 593.467 126.411C593.537 127.743 592.354 128.671 590.585 128.764C588.596 128.868 587.409 127.843 587.138 125.952L583.846 126.126C584.254 129.69 586.652 131.741 590.729 131.526C594.61 131.322 596.85 128.929 596.694 125.944C596.559 123.354 594.713 121.967 592.296 121.427L589.329 120.742C588.082 120.437 587.214 119.864 587.156 118.754C587.095 117.57 588.181 116.672 589.777 116.588C591.448 116.5 592.621 117.279 592.816 119.124L596.083 118.952C595.788 115.653 593.318 113.631 589.633 113.825C585.85 114.024 583.783 116.409 583.929 119.221Z" fill="white"/>
<path d="M599.25 130.781L602.492 130.61L601.599 113.492L598.357 113.663L599.25 130.781Z" fill="white"/>
<path d="M607.68 121.755C607.491 118.129 609.112 115.694 611.519 115.567C613.509 115.463 614.834 116.778 615.289 118.881L618.678 118.703C618.18 114.821 615.324 112.473 611.369 112.682C606.874 112.918 603.987 116.607 604.265 121.935C604.544 127.262 607.798 130.628 612.293 130.392C616.076 130.192 618.83 127.747 618.96 123.635L615.546 123.814C615.313 125.954 614.132 127.401 612.143 127.506C609.735 127.632 607.869 125.381 607.68 121.755Z" fill="white"/>
<path d="M392.093 51.8344L385.795 50.6302L384.98 54.8947L392.371 56.308L391.868 58.9433L381.195 56.9028L384.239 40.9818L394.89 43.0181L394.382 45.6753L387.012 44.2662L386.286 48.0605L392.585 49.2648L392.093 51.8344ZM400.812 49.8403L404.847 44.9218L408.619 45.6431L402.473 52.6516L405.695 61.5871L401.879 60.8575L399.884 54.6953L395.756 59.6867L391.939 58.957L398.231 51.8404L395.104 43.059L398.876 43.7803L400.812 49.8403ZM419.643 64.2539L416.363 63.6267L417.667 56.8034L411.271 55.5804L409.966 62.4036L406.686 61.7764L409.73 45.8555L413.01 46.4827L411.776 52.9342L418.173 54.1572L419.407 47.7057L422.687 48.3329L419.643 64.2539ZM425.335 65.3422L422.055 64.715L425.099 48.794L428.379 49.4212L425.335 65.3422ZM427.714 65.7971L430.758 49.8761L436.335 50.9423C438.267 51.3117 439.661 51.9636 440.518 52.8981C441.376 53.8254 441.668 55.0034 441.395 56.4322C441.246 57.2122 440.913 57.8627 440.398 58.3839C439.884 58.8977 439.244 59.2248 438.476 59.3652C439.254 59.7254 439.817 60.26 440.165 60.9688C440.52 61.679 440.612 62.4825 440.441 63.3791C440.148 64.91 439.438 65.9757 438.31 66.5762C437.183 67.1767 435.714 67.3115 433.903 66.9804L427.714 65.7971ZM432.32 59.4916L431.499 63.789L434.309 64.3263C435.082 64.474 435.718 64.4068 436.218 64.1245C436.726 63.8364 437.042 63.3679 437.166 62.7191C437.445 61.2611 436.832 60.377 435.327 60.0666L432.32 59.4916ZM432.763 57.1735L435.191 57.6376C436.851 57.9248 437.805 57.4233 438.052 56.133C438.19 55.4113 438.077 54.8533 437.714 54.459C437.36 54.0588 436.731 53.7723 435.827 53.5995L433.531 53.1604L432.763 57.1735ZM444.833 69.0702L441.553 68.443L444.597 52.522L447.877 53.1492L444.833 69.0702ZM461.405 58.4898L456.528 57.5574L453.992 70.8212L450.711 70.194L453.247 56.9302L448.436 56.0103L448.944 53.3531L461.913 55.8327L461.405 58.4898ZM474.302 66.8271C474.003 68.3944 473.463 69.7156 472.683 70.7906C471.903 71.8656 470.935 72.6249 469.777 73.0685C468.626 73.5135 467.384 73.6085 466.05 73.3534C464.731 73.1011 463.614 72.5589 462.7 71.7268C461.786 70.8946 461.157 69.8374 460.813 68.555C460.47 67.2653 460.441 65.8544 460.727 64.3221L460.877 63.5348C461.177 61.9675 461.721 60.6434 462.509 59.5625C463.307 58.4757 464.28 57.7134 465.429 57.2757C466.587 56.8321 467.829 56.7372 469.156 56.9908C470.483 57.2445 471.598 57.7904 472.504 58.6284C473.418 59.4605 474.041 60.528 474.374 61.8309C474.715 63.1278 474.737 64.5563 474.438 66.1163L474.302 66.8271ZM471.116 65.4698C471.435 63.8005 471.379 62.4749 470.947 61.4931C470.515 60.5113 469.745 59.9145 468.637 59.7027C467.537 59.4922 466.605 59.7599 465.843 60.5058C465.082 61.2444 464.54 62.4405 464.216 64.0938L464.068 64.8702C463.757 66.4958 463.815 67.8141 464.241 68.8251C464.667 69.836 465.442 70.4488 466.564 70.6634C467.665 70.8739 468.593 70.6055 469.348 69.8582C470.104 69.1036 470.644 67.8996 470.968 66.2462L471.116 65.4698ZM487.508 77.2294L484.228 76.6022L479.845 64.9058L477.842 75.3813L474.561 74.7541L477.605 58.8331L480.886 59.4603L485.276 71.1807L487.283 60.6833L490.552 61.3084L487.508 77.2294ZM498.756 75.0501C498.874 74.4305 498.746 73.9148 498.371 73.5032C497.998 73.0842 497.278 72.5838 496.21 72.0018C495.144 71.4126 494.313 70.876 493.718 70.392C492.097 69.0695 491.445 67.5808 491.761 65.926C491.926 65.0658 492.313 64.3464 492.922 63.7677C493.54 63.1832 494.337 62.7878 495.314 62.5815C496.297 62.3767 497.354 62.3823 498.484 62.5983C499.621 62.8157 500.595 63.2172 501.405 63.8028C502.216 64.3811 502.794 65.0923 503.139 65.9366C503.491 66.7822 503.576 67.6825 503.393 68.6375L500.113 68.0102C500.252 67.2813 500.131 66.6724 499.748 66.1836C499.367 65.6876 498.761 65.3601 497.93 65.2013C497.128 65.0479 496.472 65.1001 495.962 65.3577C495.453 65.608 495.145 66.0102 495.04 66.5642C494.941 67.0818 495.116 67.565 495.567 68.0139C496.025 68.4641 496.731 68.9392 497.686 69.4391C499.445 70.3572 500.671 71.3134 501.366 72.3075C502.06 73.3016 502.288 74.4183 502.051 75.6576C501.788 77.0353 501.059 78.0182 499.867 78.6062C498.675 79.1869 497.197 79.3086 495.433 78.9713C494.208 78.7372 493.135 78.3016 492.214 77.6645C491.295 77.0202 490.644 76.2572 490.261 75.3754C489.885 74.4951 489.795 73.541 489.992 72.5131L493.283 73.1424C492.947 74.8992 493.829 75.9784 495.928 76.3798C496.708 76.5289 497.347 76.4886 497.844 76.2587C498.343 76.0216 498.647 75.6187 498.756 75.0501Z" fill="black"/>
</g>
<defs>
<clipPath id="clip0">
<rect width="679" height="212" fill="white"/>
</clipPath>
</defs>
</svg>
