<svg width="36" height="36" viewBox="0 0 36 36" fill="none" xmlns="http://www.w3.org/2000/svg">
<path d="M18.0013 0C8.07543 0 0 8.07568 0 18.0018C0 27.9261 8.07543 36 18.0013 36C27.9259 36 36 27.9261 36 18.0018C36 8.07568 27.9259 0 18.0013 0ZM18.0013 34.6636C8.81223 34.6636 1.3364 27.1893 1.3364 18.0018C1.3364 8.81246 8.81223 1.33637 18.0013 1.33637C27.1891 1.33637 34.6636 8.81246 34.6636 18.0018C34.6636 27.1893 27.1891 34.6636 18.0013 34.6636Z" fill="#F1F2EC"/>
<path d="M22.8876 19.985L19.1541 23.7545V10.658C19.1541 10.2943 18.8626 10 18.5024 10C18.1423 10 17.8508 10.2943 17.8508 10.658V23.7553L14.112 19.9841C13.8574 19.727 13.4443 19.7275 13.1906 19.985C12.9364 20.242 12.9364 20.6583 13.191 20.9154L18.041 25.8065C18.1019 25.8684 18.1744 25.9171 18.2552 25.9504C18.2587 25.9522 18.2622 25.9522 18.2656 25.9539C18.3391 25.9829 18.419 26 18.5029 26C18.5871 26 18.6671 25.9829 18.7409 25.9539C18.744 25.9522 18.7474 25.9522 18.7505 25.9504C18.8313 25.9171 18.9038 25.868 18.9647 25.8065L23.8091 20.9154C24.0636 20.6588 24.0636 20.242 23.8091 19.985C23.5545 19.7279 23.1422 19.7279 22.8876 19.985Z" fill="#F1F2EC"/>
</svg>
