<svg width="24" height="24" viewBox="0 0 24 24" fill="none" xmlns="http://www.w3.org/2000/svg">
<path d="M5.453 7.76552V23.2495H0.297V7.76552H5.453ZM5.781 2.98352C5.797 4.46752 4.672 5.65552 2.875 5.65552H2.844C1.11 5.65552 0 4.46752 0 2.98352C0 1.46752 1.156 0.311523 2.906 0.311523C4.672 0.311523 5.765 1.46752 5.781 2.98352ZM24 14.3745V23.2495H18.859V14.9685C18.859 12.8905 18.109 11.4685 16.25 11.4685C14.828 11.4685 13.984 12.4215 13.609 13.3435C13.484 13.6875 13.437 14.1405 13.437 14.6095V23.2505H8.296C8.359 9.21952 8.296 7.76652 8.296 7.76652H13.437V10.0165H13.406C14.078 8.95452 15.297 7.40752 18.078 7.40752C21.469 7.40752 24 9.62652 24 14.3765V14.3745Z" fill="white"/>
</svg>
