<svg width="24" height="17" viewBox="0 0 24 17" fill="none" xmlns="http://www.w3.org/2000/svg">
<path d="M14.8671 1.90684L20.3119 7.29975L1.39478 7.29975C0.869503 7.29975 0.444336 7.72081 0.444336 8.24103C0.444336 8.76124 0.869503 9.18231 1.39478 9.18231L20.3131 9.18231L14.8658 14.5827C14.4945 14.9505 14.4951 15.5472 14.8671 15.9137C15.2384 16.2808 15.8397 16.2808 16.211 15.9131L23.276 8.90745C23.3654 8.8196 23.4357 8.71481 23.4838 8.59809C23.4864 8.59307 23.4864 8.58805 23.4889 8.58303C23.5307 8.47698 23.5555 8.36151 23.5555 8.2404C23.5555 8.11866 23.5307 8.0032 23.4889 7.89652C23.4864 7.89213 23.4864 7.88711 23.4838 7.88272C23.4357 7.766 23.3647 7.6612 23.276 7.57335L16.211 0.57587C15.8403 0.208143 15.2384 0.208143 14.8671 0.57587C14.4958 0.943597 14.4958 1.53911 14.8671 1.90684Z" fill="white"/>
</svg>
