<svg width="533" height="84" viewBox="0 0 533 84" fill="none" xmlns="http://www.w3.org/2000/svg">
<path d="M108.25 32.2999L112.95 23.1699H82.7999L74.8999 60.4299H102.63L107.32 51.2999H88.1899L89.3399 45.8999H101.25L105.95 36.7799H91.3099L92.2599 32.2999H108.25Z" fill="white"/>
<path d="M179.65 1.45996H149.47L107.92 82.14H133.01L140.67 65.81H162.6L164.01 82.12H188.01L179.65 1.45996ZM148.75 47.46C153.51 37.54 157.41 29.22 160.45 22.05C160.77 29.05 161.38 38.18 162.17 47.46H148.75Z" fill="white"/>
<path d="M258.05 1.45996H191.1L187.13 19.79H208.7L195.56 82.14H219.54L232.68 19.79H254.08L258.05 1.45996Z" fill="white"/>
<path d="M320.88 10.14C314.88 3.51 305.79 0 294.66 0C264.84 0 249.23 25.37 249.23 50.43C249.23 71.2 261.89 83.6 283.1 83.6C298.1 83.6 310.34 78.17 318.5 67.91C325.41 59.22 329.21 47.29 329.21 34.31C329.21 24.5 326.32 16.14 320.88 10.14ZM285.51 65.61C275.9 65.61 273.89 57.61 273.89 50.83C273.944 43.3711 275.634 36.0149 278.84 29.28C281.43 24.13 286.1 17.99 293.59 17.99C301.08 17.99 304.95 22.99 304.95 32.99C304.95 45.59 299.67 65.61 285.51 65.61Z" fill="white"/>
<path d="M429.26 1.46014H394.79L394.53 2.08015C392.82 6.02015 391.06 10.0201 389.32 13.9901C383.91 26.3501 378.76 38.1201 375.06 47.5701C375.57 35.0401 375.91 15.3201 375.81 2.48015V1.48015H342.13L325.02 82.1402H346.79L352.26 56.2901C354.26 47.0101 356.21 36.7601 357.69 28.2901C357.47 38.2301 357.41 49.5102 357.36 60.5302C357.36 67.6002 357.29 74.5901 357.21 81.0901V82.0901H376.68L376.95 81.4702C385.95 61.0302 394.17 41.0501 399.74 27.3201C397.74 35.8201 395.45 46.3201 393.58 55.2001L387.91 82.0901H412.17L419.17 48.9801H401.85L429.26 1.41016V1.46014Z" fill="white"/>
<path d="M434.06 1.45996L427.04 34.57H445.15L416.96 82.14H442.35L459.45 1.45996H434.06Z" fill="white"/>
<path d="M498.89 17.9498C505.42 17.9498 508.36 21.2198 508.39 28.5698V29.5698H532.63V28.5698C532.63 20.3998 530.12 13.4798 525.23 8.56976C519.67 2.96976 511.16 0.00976562 500.62 0.00976562C485.96 0.00976562 473.93 6.00976 465.83 17.2898C459.39 26.2898 455.69 38.3398 455.69 50.3698C455.69 71.4898 467.51 83.6098 488.12 83.6098C508.57 83.6098 522.24 73.7898 527.64 55.1998L528.03 53.8798H503.67L503.41 54.5298C501.11 60.2498 497.94 65.5298 490.41 65.5298C483.91 65.5298 480.75 60.9198 480.75 51.4398C480.73 37.3998 487.04 17.9498 498.89 17.9498Z" fill="white"/>
<path d="M17.5298 1.45996L15.5498 10.63H128.27L132.99 1.45996H17.5298Z" fill="white"/>
<path d="M1.97 72.9707L0 82.1407H91.44L96.16 72.9707H1.97Z" fill="white"/>
<path d="M10.8398 32.2999H20.5798L14.6498 60.4299H26.3398L32.2698 32.2999H41.9198L43.8998 23.1699H12.8198L10.8398 32.2999Z" fill="white"/>
<path d="M67.3999 23.1699L64.5899 36.3899H55.8999L58.7199 23.1699H47.0099L39.1099 60.4299H50.8199L53.9499 45.5199H62.6399L59.5099 60.4299H71.2299L79.1299 23.1699H67.3999Z" fill="white"/>
<path d="M108.25 32.3194L112.95 23.1895H82.7999L74.8999 60.4494H102.63L107.32 51.3194H88.1899L89.3399 45.9194H101.25L105.95 36.7995H91.3099L92.2599 32.3194H108.25Z" fill="white"/>
<path d="M179.65 1.47949H149.47L107.92 82.1595H133.01L140.67 65.8095H162.6L164.01 82.1195H188.01L179.65 1.47949ZM148.75 47.4795C153.51 37.5595 157.41 29.2395 160.45 22.0695C160.77 29.0695 161.38 38.1995 162.17 47.4795H148.75Z" fill="white"/>
<path d="M258.05 1.47949H191.1L187.13 19.8095H208.7L195.56 82.1595H219.54L232.68 19.8095H254.08L258.05 1.47949Z" fill="white"/>
<path d="M320.88 10.1595C314.88 3.52953 305.79 0.0195312 294.66 0.0195312C264.84 0.0195312 249.23 25.3895 249.23 50.4495C249.23 71.2195 261.89 83.6195 283.1 83.6195C298.1 83.6195 310.34 78.1895 318.5 67.9295C325.41 59.2395 329.21 47.3095 329.21 34.3295C329.21 24.5195 326.32 16.1595 320.88 10.1595ZM285.51 65.6295C275.9 65.6295 273.89 57.6295 273.89 50.8495C273.944 43.3906 275.634 36.0344 278.84 29.2995C281.43 24.1495 286.1 18.0095 293.59 18.0095C301.08 18.0095 304.95 23.0095 304.95 33.0095C304.95 45.5995 299.67 65.6295 285.51 65.6295Z" fill="white"/>
<path d="M429.26 1.47969H394.79L394.53 2.09969C392.82 6.03969 391.06 10.0397 389.32 14.0097C383.91 26.3697 378.76 38.1397 375.06 47.5897C375.57 35.0497 375.91 15.3397 375.81 2.49969V1.49969H342.13L325.02 82.1597H346.79L352.26 56.3097C354.26 47.0297 356.21 36.7697 357.69 28.3097C357.47 38.2397 357.41 49.5297 357.36 60.5497C357.36 67.6197 357.29 74.6097 357.21 81.1097V82.1097H376.68L376.95 81.4897C385.95 61.0497 394.17 41.0697 399.74 27.3397C397.74 35.8397 395.45 46.2897 393.58 55.2097L387.91 82.1097H412.17L419.17 48.9997H401.85L429.26 1.42969V1.47969Z" fill="white"/>
<path d="M434.06 1.47949L427.04 34.5895H445.15L416.96 82.1595H442.35L459.45 1.47949H434.06Z" fill="white"/>
<path d="M498.89 17.9691C505.42 17.9691 508.36 21.2391 508.39 28.5891V29.5891H532.63V28.5891C532.63 20.4191 530.12 13.4991 525.23 8.58907C519.67 2.99907 511.16 0.0390625 500.62 0.0390625C485.96 0.0390625 473.93 6.03906 465.83 17.3191C459.39 26.3191 455.69 38.3191 455.69 50.3891C455.69 71.5191 467.51 83.6391 488.12 83.6391C508.57 83.6391 522.24 73.8091 527.64 55.2291L528.03 53.9091H503.67L503.41 54.5591C501.11 60.2791 497.94 65.5591 490.41 65.5591C483.91 65.5591 480.75 60.9491 480.75 51.4691C480.73 37.4191 487.04 17.9691 498.89 17.9691Z" fill="white"/>
<path d="M17.5298 1.47949L15.5498 10.6495H128.27L132.99 1.47949H17.5298Z" fill="white"/>
<path d="M1.97 72.9902L0 82.1602H91.44L96.16 72.9902H1.97Z" fill="white"/>
</svg>
