<svg width="165" height="165" viewBox="0 0 165 165" fill="none" xmlns="http://www.w3.org/2000/svg">
<circle cx="82.5" cy="82.5" r="82" fill="white" stroke="black"/>
<path d="M80.4 108L80.4 85.6875L68 88.875L86.6 57L86.6 79.3125L99 76.125L80.4 108Z" fill="#3746FF"/>
<path d="M78.9746 32.4359L78.9746 16.9231L83.7163 16.9231C85.2902 16.9231 86.4723 17.2711 87.2625 17.9672C88.0594 18.6633 88.4579 19.6932 88.4579 21.057C88.4579 21.7815 88.2653 22.4243 87.8801 22.9855C87.495 23.5395 86.9703 23.9692 86.3062 24.2746C87.0899 24.509 87.7075 24.9565 88.1591 25.6171C88.6173 26.2706 88.8464 27.0519 88.8464 27.9611C88.8464 29.3532 88.4247 30.4471 87.5813 31.2426C86.7379 32.0382 85.5458 32.4359 84.0051 32.4359L78.9746 32.4359ZM80.8872 25.1803L80.8872 30.7632L84.045 30.7632C84.9349 30.7632 85.6355 30.5181 86.1469 30.028C86.6648 29.5308 86.9238 28.8489 86.9238 27.9824C86.9238 26.1143 85.9742 25.1803 84.0749 25.1803L80.8872 25.1803ZM80.8872 23.5395L83.776 23.5395C84.6128 23.5395 85.2802 23.3157 85.7783 22.8683C86.283 22.4208 86.5353 21.8135 86.5353 21.0464C86.5353 20.194 86.3029 19.576 85.838 19.1925C85.3732 18.8018 84.6659 18.6065 83.7163 18.6065L80.8872 18.6065L80.8872 23.5395Z" fill="black"/>
<path d="M102.581 27.5688C102.239 29.0108 101.698 30.2134 100.957 31.1765C100.218 32.1329 99.3367 32.7887 98.3131 33.1439C97.2895 33.4991 96.1848 33.5362 94.9988 33.2551C93.8398 32.9805 92.8793 32.4539 92.1173 31.6755C91.3568 30.8903 90.8518 29.9131 90.6023 28.7437C90.3612 27.5692 90.3983 26.2863 90.7138 24.895L90.9654 23.8338C91.3007 22.4187 91.8429 21.227 92.5919 20.2588C93.341 19.2905 94.2314 18.6262 95.2634 18.2658C96.3037 17.9003 97.4033 17.8549 98.5623 18.1296C99.7415 18.4091 100.711 18.9414 101.472 19.7265C102.241 20.5066 102.739 21.4965 102.967 22.6963C103.197 23.8895 103.141 25.2036 102.801 26.6389L102.581 27.5688ZM100.875 26.1611C101.289 24.4159 101.256 22.9953 100.775 21.8993C100.297 20.7966 99.4271 20.096 98.167 19.7973C96.9406 19.5067 95.8627 19.7458 94.9332 20.5147C94.012 21.2785 93.3449 22.4869 92.9318 24.1397L92.6755 25.2212C92.2747 26.9125 92.313 28.3272 92.7906 29.4652C93.2765 30.598 94.1427 31.3122 95.3893 31.6076C96.6426 31.9047 97.7207 31.6798 98.6236 30.933C99.5281 30.1795 100.193 28.9528 100.617 27.2527L100.875 26.1611Z" fill="black"/>
<path d="M114.753 33.5877C114.088 34.912 113.284 35.9573 112.342 36.7237C111.402 37.4839 110.393 37.9188 109.315 38.0283C108.237 38.1379 107.154 37.9192 106.064 37.3722C105 36.8377 104.187 36.1038 103.625 35.1706C103.066 34.2312 102.8 33.1639 102.827 31.9685C102.863 30.77 103.195 29.5303 103.823 28.2493L104.312 27.2746C104.965 25.9751 105.767 24.9405 106.72 24.1711C107.672 23.4016 108.691 22.9606 109.779 22.8479C110.875 22.7322 111.956 22.9416 113.02 23.4762C114.103 24.0201 114.924 24.7617 115.483 25.701C116.051 26.6373 116.308 27.7155 116.253 28.9356C116.201 30.1495 115.844 31.4155 115.182 32.7337L114.753 33.5877ZM113.419 31.8247C114.224 30.2219 114.519 28.8319 114.304 27.6547C114.092 26.4713 113.408 25.589 112.251 25.0078C111.125 24.4421 110.02 24.4263 108.939 24.9601C107.866 25.4909 106.938 26.5128 106.155 28.0258L105.656 29.019C104.876 30.5723 104.587 31.9577 104.79 33.1751C105.001 34.3895 105.679 35.2842 106.824 35.8592C107.975 36.4372 109.076 36.4671 110.127 35.9486C111.181 35.424 112.11 34.3835 112.915 32.8272L113.419 31.8247Z" fill="black"/>
<path d="M119.708 37.6903L117.056 37.9739L113.771 41.8889L112.243 40.6069L121.965 29.0211L123.493 30.3031L118.685 36.0323L128.641 34.6231L130.487 36.1721L121.635 37.4627L121.124 48.0583L119.294 46.5226L119.708 37.6903Z" fill="black"/>
<path d="M134.677 63.7723L132.168 57.9541L127.98 58.2108L127.165 56.3223L143.34 55.6351L144.031 57.2374L132.435 68.5404L131.625 66.6615L134.677 63.7723ZM133.913 57.8573L135.95 62.5785L141.425 57.4113L133.913 57.8573Z" fill="black"/>
<path d="M147.007 92.2501L147.289 87.397L133.829 86.613L133.945 84.6324L147.405 85.4163L147.687 80.5736L149.325 80.669L148.645 92.3455L147.007 92.2501Z" fill="black"/>
<path d="M136.761 105.482C135.342 105.057 134.172 104.446 133.254 103.651C132.342 102.857 131.739 101.939 131.444 100.897C131.149 99.8544 131.176 98.7494 131.525 97.5818C131.867 96.4407 132.448 95.5125 133.27 94.797C134.098 94.0835 135.103 93.6362 136.285 93.4551C137.471 93.2826 138.75 93.3943 140.12 93.7902L141.165 94.103C142.558 94.5201 143.717 95.1306 144.64 95.9347C145.563 96.7387 146.174 97.6663 146.474 98.7175C146.778 99.7772 146.76 100.878 146.418 102.019C146.071 103.18 145.483 104.117 144.655 104.83C143.831 105.553 142.814 105.993 141.603 106.15C140.398 106.31 139.09 106.179 137.677 105.756L136.761 105.482ZM138.266 103.861C139.984 104.375 141.404 104.425 142.526 104.009C143.655 103.595 144.405 102.768 144.776 101.527C145.138 100.32 144.962 99.2297 144.248 98.2571C143.539 97.2931 142.372 96.5568 140.746 96.0483L139.681 95.7296C138.016 95.231 136.601 95.1871 135.437 95.5976C134.278 96.0168 133.515 96.8401 133.147 98.0674C132.778 99.3013 132.94 100.391 133.633 101.335C134.332 102.282 135.518 103.017 137.191 103.539L138.266 103.861Z" fill="black"/>
<path d="M137.479 120.507L128.573 115.365C127.341 114.646 126.555 113.673 126.216 112.446C125.874 111.225 126.036 109.927 126.701 108.552L126.948 108.083C127.776 106.649 128.822 105.73 130.088 105.325C131.353 104.92 132.667 105.103 134.029 105.874L142.953 111.026L141.966 112.735L133.096 107.614C132.149 107.067 131.26 106.902 130.431 107.119C129.608 107.339 128.918 107.932 128.361 108.898C127.796 109.876 127.626 110.773 127.85 111.59C128.071 112.413 128.655 113.098 129.602 113.645L138.481 118.771L137.479 120.507Z" fill="black"/>
<path d="M123.748 122.687L126.186 120.103L121.736 115.904L123.111 114.446L134.112 124.825L130.676 128.466C129.507 129.705 128.327 130.391 127.136 130.524C125.94 130.662 124.802 130.222 123.725 129.205C123.04 128.559 122.618 127.809 122.461 126.957C122.3 126.109 122.404 125.236 122.775 124.339L115.667 122.518L115.577 122.432L117.045 120.876L123.748 122.687ZM127.372 121.222L125.269 123.451C124.59 124.171 124.237 124.918 124.21 125.693C124.179 126.473 124.476 127.158 125.1 127.747C125.78 128.388 126.494 128.676 127.242 128.61C127.985 128.55 128.72 128.139 129.447 127.378L131.543 125.157L127.372 121.222Z" fill="black"/>
<path d="M96.0547 139.396L109.095 134.65L109.632 136.124L96.5911 140.87L96.0547 139.396Z" fill="black"/>
<path d="M81.4765 133.884L79.7207 148.906L74.8097 148.332C73.1796 148.142 71.9947 147.662 71.255 146.892C70.5084 146.121 70.2122 145.076 70.3666 143.755C70.4486 143.054 70.7208 142.455 71.1833 141.958C71.6449 141.468 72.2369 141.115 72.9593 140.9C72.1742 140.578 71.5852 140.07 71.1922 139.376C70.7916 138.687 70.6428 137.903 70.7457 137.023C70.9032 135.675 71.4638 134.666 72.4274 133.998C73.3909 133.33 74.6706 133.089 76.2663 133.276L81.4765 133.884ZM78.6744 140.679L79.3063 135.273L76.0357 134.89C75.114 134.783 74.3607 134.935 73.7756 135.348C73.1828 135.767 72.8374 136.396 72.7393 137.235C72.5279 139.044 73.4057 140.063 75.3729 140.293L78.6744 140.679ZM78.4887 142.268L75.4967 141.918C74.63 141.817 73.9134 141.953 73.3469 142.326C72.7736 142.698 72.4434 143.255 72.3566 143.998C72.2601 144.824 72.4309 145.45 72.869 145.878C73.3062 146.313 74.0167 146.587 75.0002 146.702L77.9303 147.045L78.4887 142.268Z" fill="black"/>
<path d="M56.9924 135.074C57.4993 133.681 58.1764 132.549 59.0239 131.679C59.869 130.815 60.8206 130.266 61.8785 130.032C62.9364 129.798 64.038 129.889 65.1833 130.306C66.3026 130.713 67.1955 131.348 67.862 132.209C68.5261 133.077 68.9142 134.107 69.0263 135.297C69.1295 136.492 68.9436 137.762 68.4687 139.107L68.0957 140.132C67.5983 141.498 66.9215 142.619 66.0651 143.494C65.2087 144.369 64.2472 144.925 63.1804 145.163C62.1047 145.405 61.0072 145.323 59.8879 144.915C58.7492 144.501 57.8477 143.86 57.1835 142.992C56.5105 142.128 56.1304 141.086 56.0432 139.868C55.9536 138.656 56.1611 137.358 56.6656 135.972L56.9924 135.074ZM58.5228 136.67C57.9094 138.355 57.7776 139.77 58.1275 140.914C58.4751 142.065 59.2573 142.862 60.4741 143.305C61.6585 143.736 62.7569 143.624 63.7694 142.968C64.773 142.316 65.5759 141.193 66.1781 139.6L66.5582 138.555C67.1527 136.922 67.2788 135.512 66.9366 134.327C66.5855 133.145 65.8081 132.335 64.6042 131.897C63.3938 131.456 62.2969 131.555 61.3134 132.191C60.3275 132.835 59.5252 133.976 58.9065 135.615L58.5228 136.67Z" fill="black"/>
<path d="M45.6008 127.682C46.4152 126.444 47.335 125.499 48.3605 124.847C49.3821 124.201 50.4346 123.886 51.5179 123.903C52.6013 123.919 53.6521 124.262 54.6704 124.932C55.6656 125.586 56.3881 126.41 56.8379 127.402C57.284 128.4 57.4243 129.491 57.2588 130.675C57.0837 131.861 56.61 133.054 55.8377 134.253L55.2383 135.165C54.4392 136.38 53.5221 137.314 52.4871 137.968C51.4521 138.621 50.3881 138.941 49.2951 138.927C48.1926 138.914 47.1438 138.581 46.1486 137.926C45.1361 137.261 44.4068 136.429 43.9608 135.431C43.5051 134.435 43.3754 133.334 43.5715 132.129C43.7637 130.929 44.2651 129.713 45.0757 128.481L45.6008 127.682ZM46.7219 129.588C45.7363 131.087 45.2818 132.433 45.3584 133.627C45.4311 134.827 46.0085 135.783 47.0904 136.494C48.1434 137.187 49.2382 137.331 50.3746 136.926C51.5014 136.524 52.5416 135.616 53.4951 134.205L54.1058 133.276C55.061 131.824 55.5088 130.481 55.4492 129.249C55.3801 128.018 54.8104 127.05 53.74 126.346C52.6639 125.639 51.5739 125.481 50.47 125.874C49.3623 126.273 48.3184 127.198 47.3383 128.651L46.7219 129.588Z" fill="black"/>
<path d="M41.1558 123.032L43.8224 123.058L47.5397 119.551L48.9084 121.002L37.9075 131.381L36.5388 129.93L41.9788 124.798L31.9268 125.042L30.2731 123.289L39.2158 123.035L40.9532 112.57L42.5927 114.308L41.1558 123.032Z" fill="black"/>
<path d="M29.3154 95.3893L31.1327 101.459L35.3222 101.691L35.9121 103.661L19.7669 102.466L19.2664 100.794L32.0958 90.9136L32.6827 92.874L29.3154 95.3893ZM29.3876 101.353L27.9129 96.4272L21.8751 100.924L29.3876 101.353Z" fill="black"/>
<path d="M20.3756 65.6722L19.5314 70.4597L32.8095 72.801L32.465 74.7549L19.1869 72.4136L18.3446 77.1908L16.7283 76.9058L18.7593 65.3872L20.3756 65.6722Z" fill="black"/>
<path d="M32.0882 53.7194C33.4489 54.3063 34.5393 55.0481 35.3592 55.9448C36.1727 56.8387 36.6655 57.8206 36.8376 58.8903C37.0096 59.9601 36.8543 61.0545 36.3716 62.1736C35.8998 63.2673 35.2144 64.1218 34.3155 64.7371C33.4102 65.3496 32.3601 65.6772 31.1652 65.7199C29.9667 65.7534 28.7098 65.4941 27.3944 64.9418L26.3929 64.5098C25.0576 63.9338 23.9782 63.1929 23.1547 62.2871C22.3312 61.3813 21.8316 60.389 21.6559 59.3102C21.4766 58.2222 21.6228 57.1314 22.0946 56.0377C22.5746 54.925 23.2672 54.0623 24.1725 53.4498C25.0742 52.8281 26.1356 52.5092 27.3568 52.493C28.5717 52.474 29.8563 52.7566 31.2107 53.3408L32.0882 53.7194ZM30.4058 55.1544C28.7589 54.444 27.3541 54.2302 26.1914 54.5129C25.0223 54.793 24.1813 55.5275 23.6683 56.7166C23.1691 57.8739 23.2175 58.977 23.8133 60.0259C24.4056 61.0657 25.4797 61.9325 27.0357 62.6263L28.0562 63.0665C29.6522 63.755 31.0521 63.9629 32.2557 63.6902C33.4557 63.4084 34.3095 62.6793 34.8169 61.503C35.327 60.3203 35.2928 59.2195 34.7142 58.2006C34.1292 57.179 33.0364 56.3117 31.4359 55.5987L30.4058 55.1544Z" fill="black"/>
<path d="M33.1197 38.7126L41.3684 44.8535C42.5085 45.711 43.1757 46.7688 43.3699 48.0271C43.5683 49.2798 43.257 50.5503 42.4361 51.8385L42.1364 52.2758C41.1481 53.6034 40.002 54.3948 38.6982 54.6501C37.3945 54.9055 36.1108 54.5714 34.8472 53.6479L26.5818 47.4946L27.7603 45.9115L35.9757 52.0276C36.8534 52.681 37.7165 52.948 38.5651 52.8286C39.4081 52.7052 40.1625 52.1963 40.8283 51.302C41.5023 50.3965 41.7755 49.5251 41.6479 48.6876C41.5244 47.8446 41.0239 47.0964 40.1462 46.443L31.9225 40.3207L33.1197 38.7126Z" fill="black"/>
<path d="M47.0104 38.1418L44.289 40.4253L48.2217 45.1121L46.686 46.4008L36.9644 34.815L40.7998 31.5967C42.1047 30.5017 43.3566 29.9575 44.5554 29.9641C45.7595 29.9662 46.8378 30.5349 47.7904 31.6701C48.3958 32.3915 48.727 33.1849 48.784 34.05C48.8463 34.9108 48.6413 35.7653 48.1689 36.6137L55.0167 39.2478L55.0968 39.3432L53.4576 40.7187L47.0104 38.1418ZM43.2407 39.176L45.5881 37.2063C46.3467 36.5698 46.7841 35.8683 46.9003 35.1018C47.0218 34.3309 46.8066 33.6165 46.2547 32.9587C45.6537 32.2426 44.9782 31.8738 44.228 31.8524C43.4831 31.8266 42.7053 32.1493 41.8945 32.8206L39.5551 34.7836L43.2407 39.176Z" fill="black"/>
<path d="M71.4925 24.7595L57.9889 27.9599L57.6272 26.4337L71.1308 23.2333L71.4925 24.7595Z" fill="black"/>
</svg>
