<svg width="1353" height="213" viewBox="0 0 1353 213" fill="none" xmlns="http://www.w3.org/2000/svg">
<path d="M274.98 82.0487L286.919 58.8564H210.331L190.263 153.505H260.704L272.617 130.313H224.023L226.944 116.596H257.198L269.137 93.4289H231.948L234.361 82.0487H274.98Z" fill="white"/>
<path d="M456.352 3.70898H379.688L274.141 208.654H337.876L357.334 167.172H413.041L416.623 208.603H477.588L456.352 3.70898ZM377.859 120.559C389.95 95.3603 399.857 74.2256 407.579 56.0122C408.392 73.7938 409.942 96.986 411.949 120.559H377.859Z" fill="white"/>
<path d="M655.505 3.70898H485.437L475.352 50.2713H530.145L496.766 208.654H557.681L591.059 50.2713H645.42L655.505 3.70898Z" fill="white"/>
<path d="M815.107 25.7579C799.866 8.91618 776.775 0 748.502 0C672.753 0 633.1 64.4455 633.1 128.103C633.1 180.864 665.259 212.363 719.137 212.363C757.241 212.363 788.333 198.569 809.061 172.507C826.614 150.432 836.267 120.127 836.267 87.1551C836.267 62.2355 828.926 40.9992 815.107 25.7579ZM725.259 166.664C700.848 166.664 695.742 146.342 695.742 129.12C695.88 110.172 700.172 91.4859 708.316 74.3778C714.895 61.2956 726.758 45.6986 745.784 45.6986C764.81 45.6986 774.641 58.3997 774.641 83.802C774.641 115.809 761.229 166.664 725.259 166.664Z" fill="white"/>
<path d="M1090.42 3.70706H1002.85L1002.19 5.28202C997.851 15.2905 993.38 25.4514 988.96 35.5361C975.217 66.9332 962.135 96.8317 952.736 120.837C954.032 89.0078 954.895 38.9146 954.641 6.2981V3.75787H869.087L825.624 208.652H880.924L894.819 142.988C899.9 119.414 904.853 93.377 908.613 71.8613C908.054 97.1111 907.901 125.765 907.774 153.758C907.774 171.717 907.597 189.474 907.393 205.985V208.525H956.851L957.537 206.95C980.399 155.028 1001.28 104.275 1015.43 69.3972C1010.35 90.9892 1004.53 117.662 999.781 140.219L985.378 208.525H1047L1064.79 124.419H1020.79L1090.42 3.58008V3.70706Z" fill="white"/>
<path d="M1102.61 3.70898L1084.78 87.8158H1130.78L1059.17 208.654H1123.67L1167.11 3.70898H1102.61Z" fill="white"/>
<path d="M1267.29 45.596C1283.88 45.596 1291.35 53.9026 1291.43 72.5732V75.1134H1353V72.5732C1353 51.8196 1346.62 34.2412 1334.2 21.7687C1320.08 7.54347 1298.46 0.0244141 1271.69 0.0244141C1234.45 0.0244141 1203.89 15.2658 1183.31 43.9195C1166.95 66.7815 1157.56 97.3912 1157.56 127.95C1157.56 181.6 1187.58 212.387 1239.93 212.387C1291.88 212.387 1326.61 187.442 1340.32 140.219L1341.32 136.866H1279.44L1278.77 138.517C1272.93 153.048 1264.88 166.46 1245.75 166.46C1229.24 166.46 1221.21 154.749 1221.21 130.668C1221.16 95.0034 1237.19 45.596 1267.29 45.596Z" fill="white"/>
<path d="M27.5361 82.0487H52.2779L37.2144 153.505H66.9096L81.9731 82.0487H106.486L111.516 58.8564H32.5658L27.5361 82.0487Z" fill="white"/>
<path d="M171.211 58.8564L164.073 92.4382H141.999L149.162 58.8564H119.416L99.3484 153.505H129.094L137.045 115.63H159.12L151.169 153.505H180.94L201.008 58.8564H171.211Z" fill="white"/>
<path d="M44.5304 3.70898L39.5007 27.0029H325.835L337.825 3.70898H44.5304Z" fill="white"/>
<path d="M5.00424 185.359L0 208.653H232.278L244.268 185.359H5.00424Z" fill="white"/>
<path d="M274.98 82.0985L286.919 58.9062H210.331L190.263 153.555H260.704L272.617 130.363H224.023L226.944 116.646H257.198L269.137 93.4787H231.948L234.361 82.0985H274.98Z" fill="white"/>
<path d="M456.352 3.75879H379.688L274.141 208.704H337.876L357.334 167.171H413.041L416.623 208.602H477.588L456.352 3.75879ZM377.859 120.609C389.95 95.4101 399.857 74.2754 407.579 56.062C408.392 73.8436 409.942 97.0358 411.949 120.609H377.859Z" fill="white"/>
<path d="M655.505 3.75879H485.437L475.352 50.3211H530.145L496.766 208.704H557.681L591.059 50.3211H645.42L655.505 3.75879Z" fill="white"/>
<path d="M815.107 25.8077C799.866 8.96599 776.775 0.0498047 748.502 0.0498047C672.753 0.0498047 633.1 64.4953 633.1 128.153C633.1 180.914 665.259 212.412 719.137 212.412C757.241 212.412 788.333 198.619 809.061 172.556C826.614 150.482 836.267 120.177 836.267 87.2049C836.267 62.2853 828.926 41.049 815.107 25.8077ZM725.259 166.714C700.848 166.714 695.742 146.392 695.742 129.169C695.88 110.222 700.172 91.5357 708.316 74.4276C714.895 61.3454 726.758 45.7484 745.784 45.7484C764.81 45.7484 774.641 58.4495 774.641 83.8518C774.641 115.833 761.229 166.714 725.259 166.714Z" fill="white"/>
<path d="M1090.42 3.75885H1002.85L1002.19 5.33378C997.851 15.3423 993.38 25.5032 988.96 35.5879C975.217 66.985 962.135 96.8835 952.736 120.889C954.032 89.0342 954.895 38.9664 954.641 6.34989V3.80967H869.087L825.624 208.704H880.924L894.819 143.039C899.9 119.466 904.853 93.4034 908.613 71.9131C908.054 97.1375 907.901 125.817 907.774 153.81C907.774 171.769 907.597 189.525 907.393 206.037V208.577H956.851L957.537 207.002C980.399 155.08 1001.28 104.326 1015.43 69.449C1010.35 91.0409 1004.53 117.586 999.781 140.245L985.378 208.577H1047L1064.79 124.47H1020.79L1090.42 3.63184V3.75885Z" fill="white"/>
<path d="M1102.61 3.75879L1084.78 87.8656H1130.78L1059.17 208.704H1123.67L1167.11 3.75879H1102.61Z" fill="white"/>
<path d="M1267.29 45.6478C1283.88 45.6478 1291.35 53.9543 1291.43 72.625V75.1652H1353V72.625C1353 51.8713 1346.62 34.293 1334.2 21.8205C1320.08 7.62063 1298.46 0.101562 1271.69 0.101562C1234.45 0.101562 1203.89 15.3429 1183.31 43.9966C1166.95 66.8586 1157.56 97.3413 1157.56 128.002C1157.56 181.677 1187.58 212.464 1239.93 212.464C1291.88 212.464 1326.61 187.494 1340.32 140.297L1341.32 136.943H1279.44L1278.77 138.595C1272.93 153.125 1264.88 166.537 1245.75 166.537C1229.24 166.537 1221.21 154.827 1221.21 130.745C1221.16 95.0551 1237.19 45.6478 1267.29 45.6478Z" fill="white"/>
<path d="M44.5304 3.75879L39.5007 27.0526H325.835L337.825 3.75879H44.5304Z" fill="white"/>
<path d="M5.00424 185.409L0 208.703H232.278L244.268 185.409H5.00424Z" fill="white"/>
</svg>
