<svg width="42" height="34" viewBox="0 0 42 34" fill="none" xmlns="http://www.w3.org/2000/svg">
<path d="M34.6543 18.5714H30.8519V18.0298C31.1398 17.9895 31.4035 17.8453 31.5944 17.6239C31.7853 17.4024 31.8905 17.1187 31.8905 16.825C31.8905 16.5314 31.7853 16.2477 31.5944 16.0262C31.4035 15.8048 31.1398 15.6606 30.8519 15.6203V15.0794C30.8519 14.9867 30.8154 14.8979 30.7506 14.8324C30.6858 14.767 30.5979 14.7302 30.5062 14.7302H27.7407C27.6491 14.7302 27.5611 14.767 27.4963 14.8324C27.4315 14.8979 27.3951 14.9867 27.3951 15.0794V18.5714H25.6667V14.0317C25.6667 13.9391 25.6302 13.8503 25.5654 13.7848C25.5006 13.7193 25.4127 13.6825 25.321 13.6825H18.0617C17.97 13.6825 17.8821 13.7193 17.8173 13.7848C17.7525 13.8503 17.716 13.9391 17.716 14.0317V18.9206C17.716 19.0133 17.7525 19.1021 17.8173 19.1676C17.8821 19.2331 17.97 19.2698 18.0617 19.2698H34.6543C34.746 19.2698 34.8339 19.2331 34.8988 19.1676C34.9636 19.1021 35 19.0133 35 18.9206C35 18.828 34.9636 18.7392 34.8988 18.6737C34.8339 18.6082 34.746 18.5714 34.6543 18.5714ZM31.1975 16.8254C31.1971 16.9333 31.1636 17.0385 31.1018 17.1265C31.0399 17.2145 30.9526 17.2811 30.8519 17.3171V16.3337C30.9526 16.3697 31.0399 16.4362 31.1018 16.5243C31.1636 16.6123 31.1971 16.7174 31.1975 16.8254ZM21.5185 18.5714H18.4074V14.381H24.9753V18.5714H21.5185ZM28.0864 18.5714V15.4286H30.1605V18.5714H28.0864ZM22.5556 15.0794H19.4444C19.3528 15.0794 19.2648 15.1162 19.2 15.1816C19.1352 15.2471 19.0988 15.336 19.0988 15.4286V17.5238C19.0988 17.6164 19.1352 17.7052 19.2 17.7707C19.2648 17.8362 19.3528 17.873 19.4444 17.873H22.5556C22.6472 17.873 22.7352 17.8362 22.8 17.7707C22.8648 17.7052 22.9012 17.6164 22.9012 17.5238V15.4286C22.9012 15.336 22.8648 15.2471 22.8 15.1816C22.7352 15.1162 22.6472 15.0794 22.5556 15.0794ZM22.2099 17.1746H19.7901V15.7778H22.2099V17.1746ZM23.5926 15.4286H24.284V16.127H23.5926V15.4286ZM23.5926 16.4762H24.284V17.1746H23.5926V16.4762ZM33.2716 19.619H18.0617C17.97 19.619 17.8821 19.6558 17.8173 19.7213C17.7525 19.7868 17.716 19.8756 17.716 19.9683V27.6508C17.716 27.7434 17.7525 27.8322 17.8173 27.8977C17.8821 27.9632 17.97 28 18.0617 28H33.2716C33.3633 28 33.4512 27.9632 33.516 27.8977C33.5809 27.8322 33.6173 27.7434 33.6173 27.6508V19.9683C33.6173 19.8756 33.5809 19.7868 33.516 19.7213C33.4512 19.6558 33.3633 19.619 33.2716 19.619ZM32.9259 20.3175V23.4603H25.6667V20.3175H32.9259ZM18.4074 20.3175H24.9753V27.3016H18.4074V20.3175ZM25.6667 27.3016V24.1587H32.9259V27.3016H25.6667ZM22.2337 12.2857H27.7169C27.7659 12.2857 27.8143 12.2752 27.859 12.2548C27.9037 12.2344 27.9435 12.2047 27.976 12.1676C28.0084 12.1305 28.0326 12.0868 28.0471 12.0395C28.0615 11.9922 28.0659 11.9423 28.0598 11.8932C27.9722 11.194 27.6546 10.5449 27.1579 10.05C26.6612 9.55513 26.0143 9.24327 25.321 9.16451V6.34921C25.321 6.25659 25.2846 6.16777 25.2197 6.10228C25.1549 6.03679 25.067 6 24.9753 6C24.8836 6 24.7957 6.03679 24.7309 6.10228C24.666 6.16777 24.6296 6.25659 24.6296 6.34921V9.16451C23.9364 9.24327 23.2894 9.55513 22.7927 10.05C22.296 10.5449 21.9784 11.194 21.8908 11.8932C21.8847 11.9423 21.8891 11.9922 21.9035 12.0395C21.918 12.0868 21.9422 12.1305 21.9747 12.1676C22.0071 12.2047 22.0469 12.2344 22.0916 12.2548C22.1363 12.2752 22.1847 12.2857 22.2337 12.2857ZM24.9753 9.84127C25.4958 9.84228 26.0022 10.0126 26.4193 10.3271C26.8365 10.6416 27.1423 11.0835 27.2914 11.5873H22.6593C22.8083 11.0835 23.1141 10.6416 23.5313 10.3271C23.9484 10.0126 24.4548 9.84228 24.9753 9.84127ZM15.2963 6H8.38272C8.016 6 7.6643 6.14717 7.40499 6.40912C7.14568 6.67108 7 7.02636 7 7.39683V26.6032C7 26.9736 7.14568 27.3289 7.40499 27.5909C7.6643 27.8528 8.016 28 8.38272 28H15.2963C15.663 28 16.0147 27.8528 16.274 27.5909C16.5333 27.3289 16.679 26.9736 16.679 26.6032V7.39683C16.679 7.02636 16.5333 6.67108 16.274 6.40912C16.0147 6.14717 15.663 6 15.2963 6ZM7.69136 7.39683C7.69136 7.21159 7.7642 7.03395 7.89385 6.90297C8.02351 6.772 8.19936 6.69841 8.38272 6.69841H15.2963C15.4797 6.69841 15.6555 6.772 15.7852 6.90297C15.9148 7.03395 15.9877 7.21159 15.9877 7.39683V14.0317H7.69136V7.39683ZM15.9877 26.6032C15.9877 26.7884 15.9148 26.9661 15.7852 27.097C15.6555 27.228 15.4797 27.3016 15.2963 27.3016H8.38272C8.19936 27.3016 8.02351 27.228 7.89385 27.097C7.7642 26.9661 7.69136 26.7884 7.69136 26.6032V14.7302H15.9877V26.6032ZM8.7284 17.873V16.127C8.7284 16.0344 8.76481 15.9455 8.82964 15.8801C8.89447 15.8146 8.98239 15.7778 9.07407 15.7778C9.16575 15.7778 9.25368 15.8146 9.31851 15.8801C9.38333 15.9455 9.41975 16.0344 9.41975 16.127V17.873C9.41975 17.9656 9.38333 18.0545 9.31851 18.1199C9.25368 18.1854 9.16575 18.2222 9.07407 18.2222C8.98239 18.2222 8.89447 18.1854 8.82964 18.1199C8.76481 18.0545 8.7284 17.9656 8.7284 17.873ZM9.41975 10.8889V12.6349C9.41975 12.7275 9.38333 12.8164 9.31851 12.8818C9.25368 12.9473 9.16575 12.9841 9.07407 12.9841C8.98239 12.9841 8.89447 12.9473 8.82964 12.8818C8.76481 12.8164 8.7284 12.7275 8.7284 12.6349V10.8889C8.7284 10.7963 8.76481 10.7075 8.82964 10.642C8.89447 10.5765 8.98239 10.5397 9.07407 10.5397C9.16575 10.5397 9.25368 10.5765 9.31851 10.642C9.38333 10.7075 9.41975 10.7963 9.41975 10.8889Z" fill="white"/>
</svg>
