<svg width="42" height="34" viewBox="0 0 42 34" fill="none" xmlns="http://www.w3.org/2000/svg">
<path d="M13.5994 6.00065C13.4888 6.01081 13.3831 6.04988 13.2936 6.11369C13.2041 6.17751 13.1342 6.26366 13.0913 6.36297L9.73544 13.9067C9.73542 13.9098 9.73542 13.9129 9.73544 13.916C8.6856 14.6676 8 15.8761 8 17.2419V23.5685C8.00002 23.7262 8.06467 23.8775 8.17975 23.989C8.29482 24.1005 8.45089 24.1631 8.61364 24.1631H34.3864C34.5491 24.1631 34.7052 24.1005 34.8203 23.989C34.9353 23.8775 35 23.7262 35 23.5685V17.2419C35 15.8808 34.3178 14.6775 33.2741 13.9252C33.271 13.9221 33.2678 13.919 33.2646 13.916C33.263 13.9148 33.2662 13.9078 33.2646 13.9067L29.9087 6.36297C29.8616 6.2554 29.7828 6.16367 29.6822 6.09923C29.5816 6.03479 29.4636 6.00051 29.343 6.00065H13.657C13.6378 5.99978 13.6186 5.99978 13.5994 6.00065V6.00065ZM14.0597 7.18981H28.9403L31.6058 13.1913C31.3433 13.141 31.0685 13.117 30.7908 13.117H12.2092C11.9315 13.117 11.6567 13.141 11.3942 13.1913L14.0597 7.18981ZM12.2092 14.3062H30.7908C32.4553 14.3062 33.7727 15.6025 33.7727 17.2419V22.974H9.22727V17.2419C9.22727 15.6025 10.5447 14.3062 12.2092 14.3062ZM14.2131 15.8576C12.6452 15.8576 11.3654 17.1122 11.3654 18.6447C11.3654 20.1772 12.6452 21.4318 14.2131 21.4318C15.781 21.4318 17.0703 20.1772 17.0703 18.6447C17.0703 17.1122 15.781 15.8576 14.2131 15.8576ZM28.7869 15.8576C27.219 15.8576 25.9297 17.1122 25.9297 18.6447C25.9297 20.1772 27.219 21.4318 28.7869 21.4318C30.3548 21.4318 31.6346 20.1772 31.6346 18.6447C31.6346 17.1122 30.3548 15.8576 28.7869 15.8576ZM14.2131 17.0468C15.1206 17.0468 15.843 17.7576 15.843 18.6447C15.843 19.5318 15.1206 20.2333 14.2131 20.2333C13.3055 20.2333 12.5831 19.5318 12.5831 18.6447C12.5831 17.7576 13.3055 17.0468 14.2131 17.0468ZM28.7869 17.0468C29.6945 17.0468 30.4169 17.7576 30.4169 18.6447C30.4169 19.5318 29.6945 20.2333 28.7869 20.2333C27.8794 20.2333 27.157 19.5318 27.157 18.6447C27.157 17.7576 27.8794 17.0468 28.7869 17.0468ZM10.8572 24.7391C10.8315 24.7406 10.8059 24.7438 10.7805 24.7484C10.6298 24.7668 10.4914 24.8387 10.3922 24.9503C10.293 25.0618 10.2401 25.2051 10.2436 25.3523V27.4054C10.2436 27.5631 10.3083 27.7143 10.4234 27.8258C10.5384 27.9373 10.6945 28 10.8572 28H15.3349C15.4976 28 15.6537 27.9373 15.7688 27.8258C15.8838 27.7143 15.9485 27.5631 15.9485 27.4054V25.3523C15.9497 25.2735 15.9346 25.1953 15.9043 25.1221C15.874 25.049 15.829 24.9825 15.7719 24.9264C15.7148 24.8703 15.6467 24.8257 15.5717 24.7953C15.4967 24.7649 15.4162 24.7492 15.3349 24.7492C15.2536 24.7492 15.173 24.7649 15.098 24.7953C15.023 24.8257 14.955 24.8703 14.8979 24.9264C14.8408 24.9825 14.7958 25.049 14.7654 25.1221C14.7351 25.1953 14.7201 25.2735 14.7212 25.3523V26.8108H11.4709V25.3523C11.4734 25.2726 11.4595 25.1933 11.4298 25.119C11.4001 25.0447 11.3553 24.977 11.2981 24.9198C11.2408 24.8626 11.1723 24.8171 11.0966 24.7861C11.0209 24.7551 10.9395 24.7391 10.8572 24.7391V24.7391ZM27.6651 24.7391C27.6394 24.7406 27.6138 24.7438 27.5884 24.7484C27.4376 24.7668 27.2993 24.8387 27.2001 24.9503C27.1009 25.0618 27.0479 25.2051 27.0515 25.3523V27.4054C27.0515 27.5631 27.1162 27.7143 27.2312 27.8258C27.3463 27.9373 27.5024 28 27.6651 28H32.1428C32.3055 28 32.4616 27.9373 32.5766 27.8258C32.6917 27.7143 32.7564 27.5631 32.7564 27.4054V25.3523C32.7575 25.2735 32.7425 25.1953 32.7122 25.1221C32.6819 25.049 32.6369 24.9825 32.5798 24.9264C32.5227 24.8703 32.4546 24.8257 32.3796 24.7953C32.3046 24.7649 32.2241 24.7492 32.1428 24.7492C32.0614 24.7492 31.9809 24.7649 31.9059 24.7953C31.8309 24.8257 31.7628 24.8703 31.7057 24.9264C31.6487 24.9825 31.6036 25.049 31.5733 25.1221C31.543 25.1953 31.528 25.2735 31.5291 25.3523V26.8108H28.2788V25.3523C28.2813 25.2726 28.2673 25.1933 28.2377 25.119C28.208 25.0447 28.1632 24.977 28.1059 24.9198C28.0487 24.8626 27.9802 24.8171 27.9045 24.7861C27.8287 24.7551 27.7473 24.7391 27.6651 24.7391Z" fill="white"/>
</svg>
