<svg width="26" height="20" viewBox="0 0 26 20" fill="none" xmlns="http://www.w3.org/2000/svg">
<path d="M25.312 2.37502C24.624 3.37502 23.765 4.26602 22.781 4.98402C22.797 5.20302 22.797 5.42202 22.797 5.64002C22.797 12.312 17.719 19.999 8.43799 19.999C5.57899 19.999 2.92199 19.171 0.687988 17.733C1.09399 17.78 1.48499 17.796 1.90699 17.796C4.26599 17.796 6.43799 16.999 8.17299 15.64C5.95399 15.593 4.09499 14.14 3.45399 12.14C3.76699 12.187 4.07899 12.218 4.40699 12.218C4.85999 12.218 5.31299 12.155 5.73499 12.046C3.42299 11.577 1.68799 9.54602 1.68799 7.09302V7.03002C2.35999 7.40502 3.14099 7.63902 3.96899 7.67102C2.60999 6.76502 1.71899 5.21802 1.71899 3.46802C1.71899 2.53002 1.96899 1.67102 2.40699 0.921023C4.89099 3.98302 8.62599 5.98402 12.813 6.20202C12.735 5.82702 12.688 5.43602 12.688 5.04602C12.688 2.26502 14.938 -0.000976562 17.735 -0.000976562C19.188 -0.000976562 20.501 0.608023 21.422 1.59302C22.563 1.37402 23.656 0.952023 24.625 0.374023C24.25 1.54602 23.453 2.53002 22.406 3.15502C23.422 3.04602 24.406 2.76402 25.312 2.37402V2.37502Z" fill="white"/>
</svg>
