<svg width="42" height="34" viewBox="0 0 42 34" fill="none" xmlns="http://www.w3.org/2000/svg">
<path d="M6.31001 13.92C6.05671 13.92 5.80341 13.8259 5.61005 13.6376C5.22333 13.261 5.22333 12.651 5.61005 12.2744C9.76488 8.22829 15.2892 6 21.1659 6C27.0363 6 32.5563 8.22453 36.7097 12.2622C37.0964 12.6388 37.0969 13.2488 36.7106 13.6263C36.3239 14.0019 35.6974 14.0019 35.3107 13.6272C31.531 9.952 26.508 7.92799 21.1659 7.92799C15.818 7.92799 10.7907 9.95576 7.00998 13.6376C6.81662 13.8259 6.56332 13.92 6.31001 13.92Z" fill="white"/>
<path d="M31.6157 18.32C31.3639 18.32 31.1121 18.2156 30.9198 18.0068C28.1953 15.048 24.573 13.4182 20.72 13.4182C16.867 13.4182 13.2447 15.048 10.5202 18.0068C10.1357 18.4244 9.51284 18.4244 9.12836 18.0068C8.74388 17.5892 8.74388 16.9127 9.12836 16.495C12.2244 13.1322 16.3412 11.28 20.72 11.28C25.0988 11.28 29.2156 13.1322 32.3116 16.495C32.6961 16.9127 32.6961 17.5892 32.3116 18.0068C32.1194 18.2156 31.8676 18.32 31.6157 18.32Z" fill="white"/>
<path d="M15.0988 21.8399C14.8484 21.8399 14.5979 21.7495 14.4068 21.5687C14.0244 21.207 14.0244 20.621 14.4068 20.2593C16.3285 18.4409 18.883 17.4399 21.6 17.4399C24.3165 17.4399 26.871 18.4409 28.7932 20.2584C29.1755 20.6192 29.1755 21.2061 28.7937 21.5678C28.4113 21.9295 27.7915 21.9295 27.4091 21.5678C25.8568 20.1002 23.7936 19.2918 21.6 19.2918C19.4058 19.2918 17.3431 20.1002 15.7908 21.5687C15.5997 21.7495 15.3492 21.8399 15.0988 21.8399Z" fill="white"/>
<path d="M21.6 28C22.815 28 23.8 27.212 23.8 26.24C23.8 25.268 22.815 24.48 21.6 24.48C20.385 24.48 19.4 25.268 19.4 26.24C19.4 27.212 20.385 28 21.6 28Z" fill="white"/>
</svg>
